<svg id="Layer_1" data-name="Layer 1" xmlns="http://www.w3.org/2000/svg" viewBox="0 0 454.17 389.56"><title>2</title><path d="M477.41,249.27c-.3,25.86-2.18,51.49-8.77,76.7-3.7,14.14-10.74,24.22-24.91,29.66-12.08,4.64-23.8,10.29-36.2,14.12a17.46,17.46,0,0,0-8.42,5.74c-33.58,39.12-76,62.65-127.19,67.86-67.8,6.9-124.6-16.09-169.77-67.28a20.83,20.83,0,0,0-9.62-6.53,262.25,262.25,0,0,1-48-20.69,12.37,12.37,0,0,1-5.13-5.12c-7.69-14.16-10.73-29.68-12.83-45.36a359.73,359.73,0,0,1,.87-103.59c2.16-13.83,5.23-27.45,12.07-39.91a9.85,9.85,0,0,1,4.08-4.08,265,265,0,0,1,48.93-21.07,17.81,17.81,0,0,0,8.45-5.66c34.76-40.27,78.49-64,131.62-68.32C299.82,50.3,355.5,74.14,399.5,125.2a14.5,14.5,0,0,0,7,4.33A279,279,0,0,1,456,150.74a16.42,16.42,0,0,1,7.24,7.87c6.19,13.28,9,27.47,11,41.82A337.79,337.79,0,0,1,477.41,249.27Z" transform="translate(-23.25 -54.99)" style="fill:#252f61"/><path d="M467.4,249.45c-.26,24.35-2,48.49-7.89,72.29-3,12.18-8.93,20.56-21.09,25.32-12.52,4.9-24.82,10.4-37.66,14.45a14.74,14.74,0,0,0-7.14,5c-40,47.29-91,70.79-152.91,67.85-54.19-2.57-98.74-25.94-133.46-67.72a15.44,15.44,0,0,0-7.56-5.18A283.12,283.12,0,0,1,52.76,342a15.1,15.1,0,0,1-7.07-7.91c-5-11.57-7.51-23.79-9.12-36.16C31.89,262,32,226.19,38.34,190.47c.44-2.45.84-4.93,1.51-7.32C47.57,155.76,45,161,67.43,150c10.15-5,20.89-8.62,31.67-12a14.47,14.47,0,0,0,7.27-4.8c29.79-36.14,67.69-59.18,114-66,67.88-10,125,11.48,170.41,63.13A27.92,27.92,0,0,0,404,139.27a251.5,251.5,0,0,1,44.92,19,13.48,13.48,0,0,1,6.46,7.13c5.71,13.84,8.11,28.44,9.81,43.15A318.32,318.32,0,0,1,467.4,249.45Z" transform="translate(-23.25 -54.99)" style="fill:#fefefe"/><path d="M246.67,372.79A497.47,497.47,0,0,1,59,337.19a8.49,8.49,0,0,1-5.53-5.74,267.05,267.05,0,0,1-12.58-97.51c1.1-20.88,5.25-41.17,11.42-61.15,2.25-7.28,6.19-11.41,13.52-14.07A544.34,544.34,0,0,1,183,130.57a524.8,524.8,0,0,1,93.76-3.71,484.69,484.69,0,0,1,165,37.69c3,1.27,3.8,3.48,4.57,6a287.27,287.27,0,0,1,12.25,95.65c-.83,21.26-4.28,42-12.17,61.86a11.14,11.14,0,0,1-6.53,6.83c-44.18,18.61-90.21,29.81-137.8,35A470.46,470.46,0,0,1,246.67,372.79Z" transform="translate(-23.25 -54.99)" style="fill:#252f61"/><path d="M152.58,118.12C219,61,294.68,71,347.21,118.43,282.56,106.36,218.21,104.32,152.58,118.12Z" transform="translate(-23.25 -54.99)" style="fill:#252f61"/><path d="M152.75,381.06c64.41,12,128.77,14.09,193.94.37C283.8,437.21,205.8,430,152.75,381.06Z" transform="translate(-23.25 -54.99)" style="fill:#252f61"/><path d="M150.35,353.42a500.76,500.76,0,0,1-84-24.09,7,7,0,0,1-4.75-5.09,193.8,193.8,0,0,1-6-24.6,317.29,317.29,0,0,1-.73-34.76c.77-23,.61-46.08,1.71-69.1,1.28-7.4,3.9-14.42,6.09-21.56a7.68,7.68,0,0,1,5.18-5.38A477.32,477.32,0,0,1,150.35,146a5.09,5.09,0,0,1,1.51,4.09c0,16.65.51,33.3-.23,49.93-.62,3.1-3.29,4.36-5.47,6.11-7.44,6-14.27,12.36-17.37,21.84-3.93,12.07-1,22.56,7.08,31.84a66.07,66.07,0,0,0,11.7,10.76c1.76,1.24,3.56,2.51,4,4.87.82,8.48.31,17,.36,25.46.09,15,.06,30,0,45C151.94,348.44,152.47,351.23,150.35,353.42Z" transform="translate(-23.25 -54.99)" style="fill:#1593dc"/><path d="M353.42,147.31c27.81,5.5,54.58,14.33,80.82,24.93,3.16,1.28,3.39,3.86,4.07,6.3a283.26,283.26,0,0,1,10.21,87.34,189.29,189.29,0,0,1-10.25,55.19c-.91,2.6-2.13,4.52-5,5.67A448.46,448.46,0,0,1,353.4,351.3c-1.39-1.23-1.55-2.93-1.55-4.58,0-24.11-.42-48.22.2-72.31.41-3.41,3.25-4.84,5.53-6.71,9-7.43,14.8-16.72,15.44-28.58.68-12.6-5.86-21.85-14.75-29.8-2.34-2.1-5.18-3.73-6.09-7.06-.83-17-.3-33.91-.29-50.86A5,5,0,0,1,353.42,147.31Z" transform="translate(-23.25 -54.99)" style="fill:#efaa00"/><path d="M150.35,353.42l.18-79.28c2-1.1,3.45.54,5,1.29,6.42,3.13,12.66,6.68,19.59,8.56,5.24,1.42,10.28-1.2,11.82-5.71s-.71-9.61-5.54-11.92c-1.95-.93-4-1.61-6-2.46-6.72-2.89-13.35-6-19.16-10.52-3.25-2.52-6.74-5-7.18-9.7a87.69,87.69,0,0,1,.2-13.65c1.88-4.73,5.77-7.66,9.75-10.36,14.76-10,31.44-14.89,48.77-17.94,13.78-2.43,27.64-3.91,41.66-3.37,2.41.09,5.1-.49,6.77,2.12,1,2.57.76,5.26.76,7.91-.06,24.65.2,49.31-.13,74,.18,3.23.14,6.46,0,9.7.28,20.82.09,41.64.11,62.46,0,2.77.54,5.73-1.6,8.11-28,.94-55.79-1.24-83.45-5.35C164.7,356.17,157.54,354.7,150.35,353.42Z" transform="translate(-23.25 -54.99)" style="fill:#e1ce7f"/><path d="M255.37,362.6l.21-71.11c18.57,11.43,39.8,16.54,59.59,25.07,7.38,3.18,14-.07,14.77-6.54.55-4.46-1.29-7.77-5.92-9.93-4.07-1.91-8.39-3.23-12.58-4.86-1.64-.64-4-1-3.93-3.2s2.43-2.45,4.15-2.93c10.77-3,21.35-6.48,31.36-11.57,3.31-1.69,6-4.9,10.21-4.58q.09,39.18.18,78.36a468.07,468.07,0,0,1-76.67,10.6C269.61,362.29,262.51,363,255.37,362.6Z" transform="translate(-23.25 -54.99)" style="fill:#7ec9a9"/><path d="M150.53,201.34q-.09-27.68-.17-55.37c34.7-6.7,69.68-10.31,105.06-9.33a6.4,6.4,0,0,1,1.46,4.14c.11,11.75.33,23.51-.12,35.26a6,6,0,0,1-.5,1.91c-2.12,3.07-5.39,2.17-8.24,2.14a234.67,234.67,0,0,0-58.87,7.15,144.86,144.86,0,0,0-32.62,12.44C154.7,200.65,152.94,202.32,150.53,201.34Z" transform="translate(-23.25 -54.99)" style="fill:#e1ce7f"/><path d="M255.36,178.48q0-20.91.06-41.83a429.22,429.22,0,0,1,98,10.66q-.1,28.1-.19,56.19c-1.83.7-3.27-.35-4.65-1.19-19.63-12-41.41-17.19-63.87-20.17a201.25,201.25,0,0,0-24.37-2.06C258.56,180.06,256.6,180.29,255.36,178.48Z" transform="translate(-23.25 -54.99)" style="fill:#7ec9a9"/><path d="M56.55,195.79c.11.13.3.25.31.39a476,476,0,0,1,0,49.3c-.09,1.95-.47,3.94-.47,5.92,0,14.32,0,28.65,0,43,0,1.77.61,3.69-.77,5.28C48.68,265,48.32,230.33,56.55,195.79Z" transform="translate(-23.25 -54.99)" style="fill:#048ee3"/><path d="M296.24,100.84a573.07,573.07,0,0,0-70.82-1.92c-8.73.34-17.44,1.09-26.16,1.29q50.41-22.7,101.09-.45C299.57,102.4,297.75,101,296.24,100.84Z" transform="translate(-23.25 -54.99)" style="fill:#fdfdfe"/><path d="M296.24,100.84c1.29-.67,3.05.48,4.11-1.07l3.18,1.06A8.73,8.73,0,0,1,296.24,100.84Z" transform="translate(-23.25 -54.99)" style="fill:#bec1d0"/><path d="M203.51,398.61a571.93,571.93,0,0,0,68.83,2c9.39-.32,18.77-1.12,28.15-1.36q-50.41,22.72-101.09.44C200.18,397,202,398.45,203.51,398.61Z" transform="translate(-23.25 -54.99)" style="fill:#fdfdfe"/><path d="M203.51,398.61c-1.28.69-3.06-.5-4.11,1.08l-3.15-1.08A8.62,8.62,0,0,1,203.51,398.61Z" transform="translate(-23.25 -54.99)" style="fill:#babdcd"/><path d="M255.36,178.48c23.55.73,46.75,3.54,69.19,11.16a134.68,134.68,0,0,1,28.68,13.87c3.14,2.71,6.48,5.21,9.38,8.16,15.71,15.92,15.84,36.63.32,52.75-3,3.09-6.46,5.7-9.7,8.53a130.31,130.31,0,0,1-22.12,11.34,242.37,242.37,0,0,1-24.74,7.61c6.78,2.59,12.17,4.7,17.6,6.71,4,1.5,6.88,4,7.48,8.47,1.16,8.65-6.74,14.48-15.46,11.21-12.28-4.6-24.46-9.46-36.69-14.21-4.64-1.8-9.25-3.72-14-5.34-4.07-1.4-7.45-3.56-9.76-7.25a26.46,26.46,0,0,1-.1-8.85,12.4,12.4,0,0,1,4.27-6.56c14.12-11.91,28-24.1,42.14-36,3.63-3,7.79-4.49,12.54-3,8.3,2.53,10.76,12.08,4.86,19-3.76,4.38-8.67,7.51-12.91,11.71,13.28-4.07,26.21-8.38,37.18-17a28.85,28.85,0,0,0,4.71-4.44c5.1-6.29,5-12-.53-17.83-9.33-9.94-21.44-15.07-34.07-19A199,199,0,0,0,260.11,201c-1.67,0-3.35,0-4.73-1.19-28.56-.85-56.47,2.37-82.93,13.89-8.56,3.73-16.77,8.18-22.21,16.28a19.89,19.89,0,0,0,0,15c2.08,4.19,5.77,6.78,9.44,9.33,6.45,4.49,13.63,7.52,20.93,10.32,6.53,2.51,9.76,8.51,7.75,14.11-2.09,5.82-8.65,8.4-15.33,6a145.55,145.55,0,0,1-22.48-10.58,81.57,81.57,0,0,1-14.51-12c-13.56-14.48-13.68-33.68-.32-48.32a87.15,87.15,0,0,1,14.82-12.43c23.31-13.64,48.91-19.22,75.45-21.74C235.76,178.67,245.56,178.86,255.36,178.48Z" transform="translate(-23.25 -54.99)" style="fill:#252f61"/><path d="M255.38,199.81c26.73.13,52.69,4,77,15.83a51.55,51.55,0,0,1,16.48,11.94c6,6.8,6.13,13.21,0,20-5.46,6-12.45,9.93-19.74,13.31A96.69,96.69,0,0,1,302.85,269c5-4.39,10.15-8.66,15-13.2a10.48,10.48,0,0,0,2.27-12.79c-2.33-4.41-6.28-5.67-10.94-5.29a10.25,10.25,0,0,0-5.8,2.69q-22.21,19-44.36,38.06a36,36,0,0,0-3.56,4.12Q255.43,241.22,255.38,199.81Z" transform="translate(-23.25 -54.99)" style="fill:#7ec9a9"/><path d="M150.22,244.95c-4-5.5-4-9,0-15Q150.22,237.47,150.22,244.95Z" transform="translate(-23.25 -54.99)" style="fill:#168fd7"/></svg>