<svg id="Layer_1" data-name="Layer 1" xmlns="http://www.w3.org/2000/svg" viewBox="0 0 462.97 463.21"><title>5</title><path d="M317.18,285.15a167.72,167.72,0,0,1,7.52,35.07c6.1,65.29-28.87,126.13-88.21,153.26C146.29,514.74,39.63,458.85,23.85,361.18c-9.32-57.69,9.37-106,53.94-143.94,2.41-2.05,2.73-4.15,2.73-6.89,0-51.17.27-102.34-.18-153.5C80.16,37,94.67,23.95,113.36,24c112.83.31,225.67.15,338.5.16,20.29,0,32.62,12.37,32.62,32.7q0,97.5,0,195c0,21.32-12.07,33.3-33.52,33.3H317.18Z" transform="translate(-21.51 -24)" style="fill:#252f61"/><path d="M315.48,335.41c-.1,78.25-64.09,142-142.37,141.75C94.6,476.93,31.29,413,31.49,334.17c.19-77.71,64.47-141.26,142.62-141C252.08,193.41,315.58,257.29,315.48,335.41Z" transform="translate(-21.51 -24)" style="fill:#fefefe"/><path d="M382.49,275c-22.16.05-44.32.08-66.48.21-2.2,0-3.2-.85-4.06-2.77a153.51,153.51,0,0,0-28.29-42.07,23.17,23.17,0,0,1-.81-6.9q0-90.53,0-181.05c0-2.76-.56-5.71,1.58-8.1h98c1.83,1.88,1.6,4.31,1.6,6.61q.06,113.73,0,227.46C384.09,270.69,384.32,273.11,382.49,275Z" transform="translate(-21.51 -24)" style="fill:#7ec9a9"/><path d="M382.49,275q0-120.34,0-240.67c24.32,0,48.64-.26,73-.05,10.33.09,18.43,8.6,19,18.93.07,1.33,0,2.67,0,4q0,97.46,0,194.93c0,15.29-7.74,23-23,23Q417,275.1,382.49,275Z" transform="translate(-21.51 -24)" style="fill:#efaa00"/><path d="M284.46,34.32q0,95.63,0,191.26c0,1.62.46,3.36-.81,4.78q-40.47-41.51-98.21-46.79c-1.62-2-1.57-4.33-1.57-6.66q0-68.22,0-136.44c0-2.14-.15-4.38,1.47-6.16Z" transform="translate(-21.51 -24)" style="fill:#e1ce7e"/><path d="M185.35,34.31q0,74.63.09,149.26c-33.9-2.37-65.26,5.55-94.68,23.89-.11-2.37-.27-4.11-.27-5.85q0-72.44,0-144.88c0-14.63,7.89-22.59,22.44-22.57Q149.14,34.2,185.35,34.31Z" transform="translate(-21.51 -24)" style="fill:#1593dc"/><path d="M68.39,326.07c.7-50.17,30.48-86,80.59-96.88,54.09-11.77,101.67,13.3,125.45,66.25,5.67,12.63,10.15,25.67,11,39.64.11,1.68,1,4-.94,5-1.61.77-2.85-1.3-4.25-2.07-13.81-7.66-28.93-11.7-44-15.59a482.13,482.13,0,0,0-54.8-10.67c-12.69-1.74-24.44,2-36.34,4.8-24.08,5.73-48,12.29-71.7,19.35-4.15,1.24-5.67.66-5.08-3.83A47.15,47.15,0,0,0,68.39,326.07Z" transform="translate(-21.51 -24)" style="fill:#252f61"/><path d="M167.39,443.1c-16.23-3.52-29.56-11.85-42-21.7C105.89,406,89.55,387.65,74.56,368c-1.85-2.43-1.59-3.67.55-5.66,19.21-17.85,49.22-15.82,67.33,4.73,11.57,13.13,17.16,29.06,21,45.74A162.35,162.35,0,0,1,167.39,443.1Z" transform="translate(-21.51 -24)" style="fill:#252f61"/><path d="M182.54,443.11a172.58,172.58,0,0,1,7.83-44.22c3.71-11.49,8.8-22.24,16.8-31.43,18.17-20.87,48.27-23.14,67.63-5.14,1.72,1.6,2.88,2.69.94,5.22-17.79,23.24-37.16,44.88-61.58,61.44C204.6,435.45,194.4,440.56,182.54,443.11Z" transform="translate(-21.51 -24)" style="fill:#252f61"/><path d="M273.27,323.4c-27.57-10.19-55.67-15.87-84-20.82-17.28-3-33.4.93-49.66,5-18.85,4.73-37.57,10-56.35,15-1.43.38-2.88.74-4.8,1.24,1.09-22.47,7.27-42.57,23.22-58.65,29.32-29.54,88.61-42.77,131.13-8.88C251.81,271.42,268.52,298.79,273.27,323.4Z" transform="translate(-21.51 -24)" style="fill:#fefefe"/><path d="M156.17,428.86c-12-5.44-21.42-12.48-30.4-20.12-13.87-11.79-26-25.21-37.56-39.27-2.5-3-1.17-3.94,1.38-5.37,13.78-7.72,33.65-3.64,45.33,9.55,10.35,11.69,15.13,26,18.54,40.84C154.45,418.84,155.12,423.25,156.17,428.86Z" transform="translate(-21.51 -24)" style="fill:#fefefe"/><path d="M194,428.49c3.52-21.24,7.91-41.49,23.33-57.07,11.7-11.83,31.18-14.59,43.67-7,1.88,1.14,3.26,1.86,1.21,4.38-15.78,19.45-32.62,37.79-53.53,51.92C204.27,423.67,199.84,426.6,194,428.49Z" transform="translate(-21.51 -24)" style="fill:#fefefe"/></svg>