<svg id="Layer_1" data-name="Layer 1" xmlns="http://www.w3.org/2000/svg" xmlns:xlink="http://www.w3.org/1999/xlink" viewBox="0 0 131.36 79.3"><defs><style>.cls-1{fill-rule:evenodd;fill:url(#linear-gradient);}</style><linearGradient id="linear-gradient" x1="894.34" y1="507.65" x2="1025.71" y2="507.65" gradientUnits="userSpaceOnUse"><stop offset="0" stop-color="#8c8c8c"/><stop offset="1" stop-color="#262626"/></linearGradient></defs><path class="cls-1" d="M934.87,468.05c15.52-.1,31,0,46.57,0A54.61,54.61,0,0,1,997,469.77a39.32,39.32,0,0,1,3,74.78A50.23,50.23,0,0,1,982,547.3q-22.56,0-45.14,0a46.52,46.52,0,0,1-19.14-3.7A39.27,39.27,0,0,1,909.12,477a40,40,0,0,1,17.31-8,58.23,58.23,0,0,1,8.44-.9ZM926.44,497a12.86,12.86,0,0,0-3.81,17.21,13.73,13.73,0,0,0,10.62,6.51l53.84,0a14.17,14.17,0,0,0,8.27-3.86,12.46,12.46,0,0,0,3.68-7.1A12.8,12.8,0,0,0,994.92,498a15.42,15.42,0,0,0-10.5-3.61H936a16.14,16.14,0,0,0-9.55,2.57Z" transform="translate(-894.34 -468)"/></svg>