<svg id="noun-smart-phone-2344183" xmlns="http://www.w3.org/2000/svg" width="9.951" height="19.52" viewBox="0 0 9.951 19.52">
  <path id="Path_8291" data-name="Path 8291" d="M251.95,67.2h-6.934a1.414,1.414,0,0,0-1.412,1.412V85.309a1.414,1.414,0,0,0,1.412,1.413h6.934a1.414,1.414,0,0,0,1.412-1.413V68.615A1.414,1.414,0,0,0,251.95,67.2Z" transform="translate(-243.603 -67.203)" fill="#152369"/>
  <path id="Path_8292" data-name="Path 8292" d="M262.306,78.4h-.67a.37.37,0,0,0-.358.244.374.374,0,0,1-.355.256h-3.5a.374.374,0,0,1-.355-.256.371.371,0,0,0-.358-.244H255.8a.991.991,0,0,0-.99.99v16a.991.991,0,0,0,.99.99h6.511a.991.991,0,0,0,.99-.99v-16a.991.991,0,0,0-.99-.99Z" transform="translate(-254.171 -77.63)" fill="#fff"/>
  <path id="Path_8293" data-name="Path 8293" d="M462.128,162.4a.128.128,0,0,0-.128.128v2.311a.128.128,0,1,0,.257,0v-2.311a.128.128,0,0,0-.128-.128Z" transform="translate(-452.304 -158.034)" fill="#152369"/>
  <path id="Path_8294" data-name="Path 8294" d="M333.328,78.659h1.284a.128.128,0,1,0,0-.257h-1.284a.128.128,0,1,0,0,.257Z" transform="translate(-329.09 -77.889)" fill="#fff"/>
  <path id="Path_8295" data-name="Path 8295" d="M378.255,78.527a.128.128,0,0,1-.257,0,.128.128,0,1,1,.257,0" transform="translate(-371.835 -77.885)" fill="#fff"/>
  <path id="Path_8296" data-name="Path 8296" d="M291.229,167.226a.128.128,0,0,0,.091-.038l1.795-1.795a.128.128,0,0,0-.182-.182l-1.795,1.795a.128.128,0,0,0,.091.219Z" transform="translate(-288.922 -160.682)" fill="#fff"/>
  <path id="Path_8297" data-name="Path 8297" d="M289.241,160.726l-3.264,3.264h0a.128.128,0,1,0,.181.181l3.264-3.264h0a.128.128,0,0,0-.182-.182Z" transform="translate(-283.997 -156.402)" fill="#fff"/>
</svg>
