<?xml version="1.0" encoding="utf-8"?>
<!-- Generator: Adobe Illustrator 25.3.0, SVG Export Plug-In . SVG Version: 6.00 Build 0)  -->
<svg version="1.1" id="Layer_1" xmlns="http://www.w3.org/2000/svg" xmlns:xlink="http://www.w3.org/1999/xlink" x="0px" y="0px"
	 viewBox="0 0 700 700" style="enable-background:new 0 0 700 700;" xml:space="preserve">
<path d="M688.6,324.8v-2.3c-0.8-4.7-1.6-10.2-4.7-15.6c-1.6-3.1-2.3-7.8-2.3-13.3c0-3.1-0.8-7-0.8-10.2l-2.3-14.1
	c-3.1-18-6.2-35.9-10.9-53.9c-2.3-9.4-7.8-19.5-15.6-28.9c-12.5-14.8-25.8-29.7-41.4-42.9c-10.2-9.4-26.5-21.9-44.5-28.9h-0.8
	c-10.9-14.8-28.1-20.3-42.9-25l-2.3-0.8c-24.2-7.8-49.2-9.4-76.5-5.5c-60.1,8.6-114,30.5-158.5,63.2c-23.4,17.2-42.9,39-60.1,58.6
	c-13.3,14.8-25.8,32-37.5,47.6c-3.9,5.5-7.8,10.9-12.5,16.4c-1.6,2.3-3.1,2.3-8.6,3.1c-5.5,0-10.2,0.8-15.6,0.8
	c-19.5,0.8-39.8,1.6-59.3,3.9c-32,4.7-55.4,25-66.4,59.3c-10.9,32.8-14.8,65.6-11.7,97.6c2.3,29.7,9.4,68.7,36.7,101.5
	c18.7,21.9,42.9,36.7,72.6,44.5c22.6,6.2,45.3,10.9,67.2,16.4c11.7,2.3,22.6,5.5,34.4,7.8c35.1,8.6,70.3,12.5,104.6,13.3h0.8
	c21.1,0,37.5-5.5,51.5-16.4c10.2-8.6,14.8-18.7,19.5-28.1c1.6-3.1,2.3-6.2,3.9-8.6h0.8c4.7,0.8,9.4,1.6,14.1,1.6h3.9h9.4
	c18.7,0,38.3-1.6,55.4-14.8c22.6-17.2,38.3-39.8,45.3-66.4c0.8-3.1,3.9-7.8,7-10.2c4.7-3.9,9.4-7,14.1-10.2c8.6-6.2,18-12.5,25-21.1
	c3.1-3.9,7.8-6.2,12.5-9.4c6.2-3.9,13.3-7.8,18-14.8c3.1,0,7,0,10.2-0.8c9.4,0,18.7-0.8,28.9-2.3c20.3-3.1,28.1-23.4,30.5-31.2
	c0.8-2.3,1.6-5.5,3.1-7.8C685.5,359.9,691,343.5,688.6,324.8L688.6,324.8z M234.9,214.7c17.2-18.7,35.9-40.6,57.8-56.2
	c42.9-32,94.5-52.3,151.5-60.9c25-3.9,47.6-2.3,69.5,4.7l2.3,0.8c4.7,1.6,9.4,3.1,14.1,4.7h-2.3c-3.9,0-7-0.8-10.9-0.8
	c-28.9-2.3-54.7,7.8-78.1,18.7c-33.6,15.6-77.3,37.5-116.4,69.5c-25.8,21.1-48.4,47.6-66.4,77.3c-1.6,3.1-2.3,6.2-3.1,9.4h-2.3h-0.8
	c2.3-3.9,3.9-8.6,3.9-14.8v-8.6c0.8-10.2,1.6-21.1-6.2-31.2c-2.3-3.1-7.8-3.9-10.9-1.6c-0.8,0.8-0.8,0.8-1.6,1.6l-10.2,7.8
	c-5.5,3.9-10.9,7.8-16.4,12.5C217,235.7,225.6,224.8,234.9,214.7L234.9,214.7z M486.4,140.5c-0.8,2.3-3.1,3.9-5.5,4.7
	c-6.2,3.1-13.3,6.2-20.3,8.6c-6.2,2.3-12.5,5.5-18.7,7.8l-7.8,3.1c-25,11.7-50,23.4-71.8,41.4c-7.8,6.2-14.1,13.3-21.1,20.3
	c-2.3,2.3-4.7,4.7-7,7c-18,18-39.8,30.5-61.7,39.8c16.4-25.8,36.7-48.4,59.3-67.9c37.5-30.5,79.7-52.3,112.4-67.2
	c10.9-4.7,21.9-10.2,33.6-13.3c0.8,0.8,0.8,1.6,1.6,1.6c1.6,1.6,3.1,3.9,3.9,5.5C486.4,136.6,487.2,138.9,486.4,140.5L486.4,140.5z
	 M202.2,271.7c10.2-8.6,21.1-16.4,32-25l4.7-3.1c0.8,3.9,0.8,8.6,0,13.3c0,3.1-0.8,6.2,0,9.4c0,3.9-0.8,6.2-2.3,7.8
	c-2.3,2.3-6.2,2.3-10.9,2.3c-3.1-0.8-5.5-0.8-8.6-0.8c-3.9,0-8.6-0.8-11.7-1.6c-1.6,0-2.3-0.8-3.1-0.8
	C201.4,272.4,201.4,271.7,202.2,271.7L202.2,271.7z M102.2,303.7v-13.3v-0.8c15.6-1.6,32-2.3,47.6-3.1c5.5,0,10.2-0.8,15.6-0.8
	c6.2,0,14.1-1.6,19.5-8.6c0,0.8,0,0.8,0.8,1.6c3.1,7,12.5,9.4,15.6,10.2c4.7,0.8,9.4,1.6,14.1,1.6c2.3,0,5.5,0.8,7.8,0.8h5.5
	c5.5,0,10.9-1.6,15.6-4.7v0.8c0,4.7,3.1,7.8,7.8,7.8h5.5c3.1,0,5.5-0.8,7,0l6.2,2.3c1.6,0.8,2.3,0.8,3.9,1.6
	c-1.6,0.8-3.1,2.3-5.5,3.1c-7,4.7-14.1,8.6-21.1,14.8c-12.5,10.9-28.1,17.2-47.6,18c-36.7,1.6-64-3.1-88.2-15.6
	C103.8,316.2,101.4,312.3,102.2,303.7L102.2,303.7z M270.9,334.9c12.5,0.8,12.5,3.1,12.5,6.2c0,12.5-14.8,31.2-26.5,33.6
	c-2.3,0.8-4.7,0.8-7-0.8c-1.6-1.6-2.3-3.9-3.1-7C246.7,353.7,256,337.3,270.9,334.9L270.9,334.9z M71.7,534.8v-1.6
	c0-1.6,0.8-3.1,0.8-3.1c0.8-0.8,0.8-1.6,1.6-2.3c0,0,0-0.8,0.8-0.8c3.1,1.6,7,5.5,9.4,10.2c1.6,3.1,2.3,6.2,2.3,9.4
	C80.3,542.6,75.7,538.7,71.7,534.8L71.7,534.8z M141.2,491.9c0.8,10.2,1.6,20.3,1.6,30.5c0,1.6,0,2.3,0.8,3.9
	c-6.2,2.3-9.4,6.2-10.2,9.4c-2.3,5.5-2.3,12.5,1.6,20.3c1.6,3.9,3.9,7.8,7,10.9c-5.5-1.6-11.7-3.1-17.2-3.9
	c-8.6-2.3-17.2-5.5-24.2-9.4c2.3-7,1.6-15.6-2.3-23.4c-3.9-9.4-10.9-16.4-18.7-18.7c-12.5-3.9-17.2,6.2-18.7,9.4
	c0,0.8-0.8,0.8-0.8,1.6c-18-21.1-27.3-47.6-32-85.1c2.3,7.8,7.8,14.1,14.8,19.5c1.6,0.8,3.1,1.6,4.7,1.6h0.8c2.3,0,5.5-0.8,7-3.1
	c7-9.4,10.2-19.5,8.6-29.7c-1.6-10.2-7.8-19.5-17.2-26.5c-3.1-2.3-7.8-1.6-10.2,1.6c-4.7,5.5-7.8,12.5-9.4,19.5
	c-2.3-25.8,2.3-53.1,10.9-80.4c8.6-26.5,25-42.9,48.4-47.6v10.2v2.3c-0.8-1.6-1.6-2.3-2.3-3.9c-1.6-3.1-5.5-3.9-8.6-3.1
	c-10.2,2.3-23.4,7.8-25,25.8c-1.6,14.1,5.5,24.2,19.5,28.1h2.3h0.8c1.6,0,3.9,0,5.5-1.6c8.6-6.2,13.3-16.4,12.5-27.3
	c3.1,3.9,7.8,7.8,13.3,10.9c13.3,7,27.3,10.9,43.7,14.1c-0.8,5.5-1.6,11.7-3.1,17.2c-3.1,16.4-6.2,33.6-6.2,50.8
	C138.1,441.9,139.7,467.7,141.2,491.9L141.2,491.9z M41.3,427.8c0-3.1,0-6.2,1.6-9.4c2.3,3.1,3.9,6.2,4.7,10.2c0.8,3.9,0,7-1.6,10.9
	C43.6,435.6,42.1,431.7,41.3,427.8L41.3,427.8z M72.5,335.7c-4.7-2.3-6.2-6.2-5.5-10.9s1.6-7.8,7-10.2
	C77.2,323.2,76.4,331,72.5,335.7L72.5,335.7z M172.5,566.8c-10.9-0.8-18.7-6.2-23.4-17.2c-1.6-3.9-1.6-6.2-1.6-7
	c0-0.8,1.6-1.6,2.3-1.6c12.5,0.8,18,9.4,25,22.6c0.8,1.6,0.8,2.3,0.8,2.3C175.6,566.1,174.8,566.8,172.5,566.8L172.5,566.8z
	 M256.8,593.4c-0.8-2.3-0.8-3.9-1.6-6.2c-1.6-5.5-3.1-10.9-4.7-15.6c-0.8-2.3,0-3.9,0-3.9h0.8c3.9-0.8,7.8,0,9.4,0.8
	c9.4,6.2,14.8,15.6,16.4,28.1C270.1,595.7,263.8,594.2,256.8,593.4L256.8,593.4z M391.1,455.9c-18,17.2-20.3,32-6.2,52.3
	c1.6,2.3,3.9,3.1,6.2,3.1c2.3,0,5.5-1.6,6.2-3.9c-2.3,20.3-6.2,39-14.1,57c-3.9,8.6-7.8,16.4-14.8,22.6
	c-10.9,9.4-24.2,13.3-42.2,13.3c-10.9,0-22.6-0.8-33.6-1.6c-1.6-18.7-9.4-32.8-23.4-42.2c-6.2-3.9-14.8-4.7-21.1-3.9
	c-4.7,0.8-8.6,3.1-10.9,7c-3.1,4.7-3.9,10.2-2.3,16.4c0.8,4.7,2.3,10.2,3.9,14.8c-4.7-0.8-9.4-1.6-14.1-3.1
	c-11.7-2.3-22.6-5.5-34.4-7.8c-1.6-0.8-3.9-0.8-5.5-1.6c0.8-0.8,1.6-1.6,2.3-2.3c3.1-4.7,3.9-11.7,0.8-18
	c-5.5-12.5-14.1-25-28.9-29.7V527c0-0.8,0-1.6-0.8-1.6v-1.6c-0.8-10.2-0.8-20.3-1.6-31.2c-1.6-24.2-3.1-50-2.3-75
	c0-15.6,3.1-32.8,6.2-48.4c0.8-6.2,2.3-11.7,3.1-18c7.8,0.8,15.6,0.8,24.2,0.8h13.3c14.1-0.8,25.8-3.1,36.7-8.6
	c-3.9,7.8-6.2,16.4-6.2,25c0,7.8,3.1,14.8,8.6,18.7c3.9,3.1,8.6,4.7,14.1,4.7c1.6,0,3.9,0,5.5-0.8c19.5-3.9,39-28.9,39-49.2
	c0-19.5-19.5-21.1-26.5-21.9c1.6-0.8,2.3-1.6,3.9-2.3c3.9-2.3,7-4.7,10.9-7c1.6-1.6,3.1-2.3,3.9-3.9c10.9,3.1,22.6,6.2,34.4,7
	l1.6,1.6c2.3,1.6,3.9,2.3,6.2,3.9c4.7,3.1,9.4,6.2,14.1,9.4c20.3,10.9,31.2,22.6,36.7,38.3c10.2,31.2,15.6,60.9,17.2,89.8
	C398.1,452.8,393.5,452.8,391.1,455.9L391.1,455.9z M476.2,536.4c-15.6,11.7-35.1,11.7-55.4,11.7h-3.9c-3.1,0-7-0.8-10.9-0.8
	c4.7-17.2,7-34.4,8.6-52.3c4.7-41.4-0.8-85.1-16.4-132.7c-7.8-25-27.3-38.3-43.7-46.9h-0.8c30.5,0,60.9,3.1,92.9,9.4
	c15.6,3.1,31.2,9.4,46.1,18c12.5,7.8,19.5,21.1,21.9,42.2c-8.6,6.2-15.6,10.9-25.8,10.9c-20.3,0-33.6,10.2-39,31.2
	c-3.9,14.8-4.7,29.7-2.3,42.2c2.3,13.3,11.7,25,24.2,30.5c4.7,2.3,9.4,3.1,14.8,3.1c7.8,0,16.4-2.3,23.4-7.8c0,0,0.8,0,0.8-0.8
	C503.6,509,492.6,523.9,476.2,536.4L476.2,536.4z M480.1,410.7c-1.6,1.6-3.1,3.1-4.7,4.7c-3.9,3.1-7,7-9.4,10.9
	C469.2,417.7,473.9,413,480.1,410.7L480.1,410.7z M537.1,453.6c-3.1,2.3-6.2,4.7-8.6,7c-3.9,3.1-7,7-9.4,11.7
	c-1.6,0.8-3.1,0.8-4.7,1.6c-3.9,1.6-8.6,3.1-13.3,6.2c-10.2,7-18.7,4.7-23.4,3.1c-0.8,0-0.8-0.8-1.6-0.8v-2.3c0-3.1,0-7-1.6-10.2
	c-4.7-18.7-0.8-32,10.9-42.9c3.9-3.9,8.6-7.8,12.5-12.5c1.6-1.6,3.9-3.9,5.5-5.5c0.8-0.8,0.8-1.6,1.6-2.3c7-2.3,13.3-7,18.7-10.9
	l2.3-1.6c3.1,1.6,4.7,3.1,5.5,9.4c0,5.5,1.6,10.9,2.3,16.4c1.6,9.4,3.9,18,0.8,26.5C535.6,449.7,535.6,452,537.1,453.6L537.1,453.6z
	 M529.3,370.8c-3.1-15.6-10.2-32.8-28.1-43.7c-15.6-9.4-32.8-16.4-50.8-19.5c-36.7-7.8-73.4-10.9-107.8-10.2
	c-20.3,0.8-39.8-4.7-59.3-10.9c21.9-10.2,44.5-22.6,62.5-42.2c2.3-2.3,4.7-4.7,7-7.8c6.2-7,12.5-13.3,19.5-18.7
	c20.3-17.2,44.5-28.1,68.7-39l7.8-3.1c6.2-2.3,11.7-5.5,18-7.8c7-3.1,14.1-5.5,21.1-9.4c7-3.1,11.7-7.8,13.3-14.1
	c1.6-6.2,0.8-12.5-2.3-19.5c-0.8-1.6-1.6-2.3-2.3-3.1c6.2-0.8,12.5-0.8,19.5-0.8c3.9,0,7.8,0.8,11.7,0.8c11.7,0.8,22.6,1.6,32,5.5
	c15.6,6.2,30.5,18,40.6,26.5c10.2,8.6,19.5,18.7,28.9,28.9c0,0.8-0.8,1.6,0,3.1v4.7c0,3.9,0.8,7,0.8,10.9v0.8
	c-3.9-1.6-7.8-3.1-13.3-4.7c-57-13.3-102.3-10.9-144.5,7c-15.6,7-27.3,15.6-35.9,27.3c-7,9.4-10.2,21.9-7.8,33.6
	c2.3,10.9,8.6,20.3,18,26.5c30.5,19.5,63.2,30.5,95.3,41.4l4.7,1.6c3.9,1.6,8.6,2.3,12.5,3.9L529.3,370.8z M630.1,238.1
	c-7,31.2-22.6,57.8-45.3,79.7c-3.1,3.1-7,5.5-10.9,8.6c-0.8,0.8-2.3,1.6-3.1,2.3l-4.7-1.6c-5.5-1.6-10.9-3.1-15.6-4.7l-4.7-1.6
	c-32.8-10.9-63.2-21.1-92.1-39c-7-4.7-10.2-11.7-10.9-16.4c-1.6-7.8,0.8-15.6,4.7-21.9c7-9.4,16.4-16.4,29.7-22.6
	c21.9-9.4,45.3-14.1,71.1-14.1c19.5,0,40.6,2.3,63.2,7.8C631.6,219.3,633.2,225.6,630.1,238.1L630.1,238.1z M581.7,418.5
	c-5.5,3.9-11.7,7-16.4,12.5c-3.1,3.9-7.8,7.8-12.5,11.7c0.8-8.6-0.8-17.2-2.3-25c-0.8-4.7-1.6-10.2-2.3-14.8
	c-0.8-8.6-3.9-14.8-9.4-19.5l29.7-31.2c7.8,10.2,10.9,21.9,10.9,38.3c0,7,0.8,14.1,1.6,20.3C580.9,413,581.7,416.1,581.7,418.5
	L581.7,418.5z M597.3,397.4v0.8c0,3.1,0,5.5-1.6,7c-0.8-4.7-0.8-10.2-0.8-14.8c0.8-20.3-4.7-36.7-14.8-50c0.8-0.8,2.3-1.6,3.1-2.3
	c0.8,0,0.8-0.8,1.6-1.6c4.7,3.1,6.2,8.6,7.8,17.2c0,2.3,0.8,3.9,0.8,6.2c0.8,3.9,1.6,8.6,2.3,12.5l0.8,6.2v0.8
	C595.7,384.9,595.7,390.4,597.3,397.4L597.3,397.4z M609,356.8c0-1.6-0.8-3.1-0.8-5.5c-0.8-5.5-2.3-10.9-4.7-16.4l5.5-5.5
	c7.8-7.8,16.4-15.6,24.2-23.4c3.9-3.9,7-4.7,9.4-3.9c3.9,2.3,5.5,7,3.1,13.3c-6.2,16.4-17.2,32-34.4,47.6
	C609.8,361.5,609.8,359.1,609,356.8L609,356.8z M644.1,398.9c-8.6,1.6-18,1.6-27.3,1.6h-3.9v-0.8l0.8-0.8c1.6-1.6,3.1-3.9,4.7-6.2
	c3.1-3.9,5.5-7.8,8.6-10.2c7-6.2,14.1-10.2,20.3-12.5c2.3-0.8,3.9-0.8,3.9-0.8s1.6,1.6,1.6,5.5c0,3.1,0.8,6.2,1.6,8.6l0.8,3.1
	c0,0.8,0.8,1.6,0.8,2.3C652.7,395.8,648.8,398.2,644.1,398.9L644.1,398.9z M666,366.2c-2.3-4.7-4.7-7.8-7-9.4
	c-3.1-2.3-9.4-3.9-18-0.8c-1.6,0.8-2.3,0.8-3.9,1.6c10.2-11.7,17.2-24.2,21.9-36.7c4.7-12.5,1.6-25-9.4-31.2
	c-3.9-2.3-13.3-6.2-25.8,3.1c9.4-15.6,16.4-32.8,21.1-51.5c1.6-7.8,1.6-14.8,0-21.1c0.8-1.6,1.6-3.9,1.6-5.5l0-4.7
	c0-1.6-0.8-3.1-0.8-4.7c2.3,4.7,4.7,9.4,6.2,13.3c4.7,17.2,7.8,35.1,10.9,52.3l2.3,14.1c0.8,2.3,0.8,5.5,0.8,8.6
	c0.8,6.2,0.8,13.3,3.9,19.5c1.6,3.1,2.3,6.2,3.1,10.9v2.3C675.4,340.4,670.7,352.9,666,366.2L666,366.2z"/>
<path d="M281,442.7c-1.6,0-3.1,0-4.7,0.8c-10.2,6.2-16.4,13.3-18.7,21.9c-1.6,7.8,0,16.4,4.7,24.2c4.7,7.8,14.1,13.3,25,15.6
	c3.1,0.8,5.5,0.8,7.8,0.8c7.8,0,14.1-2.3,19.5-6.2c5.5-3.9,9.4-11.7,10.9-19.5c0.8-7-0.8-13.3-4.7-18
	C313.8,454.4,301.3,441.9,281,442.7L281,442.7z M306.8,488c-3.9,2.3-9.4,3.9-15.6,2.3c-6.2-1.6-11.7-4.7-14.8-8.6
	c-3.1-4.7-3.9-8.6-3.1-12.5c0.8-4.7,5.5-8.6,9.4-10.9c9.4,0,18,3.9,27.3,14.8c0.8,0.8,1.6,3.1,0.8,6.2
	C310.7,483.3,309.1,486.4,306.8,488L306.8,488z"/>
<path d="M205.3,363.8C205.3,363.8,204.5,363.8,205.3,363.8c-1.6,0-3.1,0-4.7,0.8c-13.3,5.5-22.6,15.6-25,27.3
	c-1.6,10.2,1.6,20.3,9.4,27.3c3.1,3.1,7,5.5,12.5,5.5c3.1,0,7-0.8,10.9-3.9c10.2-6.2,16.4-14.8,19.5-25.8
	c3.1-11.7,0.8-18.7-2.3-23.4C223.2,369.3,217.8,363.8,205.3,363.8L205.3,363.8z M213.9,391.9c-2.3,7-6.2,12.5-13.3,17.2
	c-3.1,1.6-3.1,1.6-4.7,0c-3.9-3.9-5.5-8.6-4.7-13.3c0.8-6.2,6.2-11.7,14.1-15.6c3.9,0,7,0.8,8.6,3.1
	C215.4,384.1,215.4,387.2,213.9,391.9L213.9,391.9z"/>
<path d="M109.2,344.3c-0.8-0.8-1.6-0.8-2.3-1.6c-1.6-0.8-3.1-1.6-5.5-1.6c-2.3,0-4.7,0.8-6.2,2.3c-16.4,15.6-18.7,34.4-8.6,53.1
	c3.1,5.5,7.8,11.7,14.8,11.7c7,0,13.3-7.8,15.6-12.5c5.5-14.1,5.5-28.9,0-42.9C116.3,348.2,112.4,345.8,109.2,344.3L109.2,344.3z
	 M103,390.4c0,0,0,0.8-0.8,0.8c-0.8-0.8-0.8-1.6-1.6-2.3c-6.2-10.9-5.5-21.1,2.3-30.5h0.8C107.7,369.3,106.9,379.4,103,390.4
	L103,390.4z"/>
</svg>
