<svg xmlns="http://www.w3.org/2000/svg" width="45.986" height="20.563" viewBox="0 0 45.986 20.563">
  <g id="webgl" transform="translate(0 -13.27)">
    <path id="Path_8527" data-name="Path 8527" d="M36.268,27.725a3.146,3.146,0,0,1-1.232.259,4.385,4.385,0,0,1-1.769-.341,3.761,3.761,0,0,1-1.322-.941,4.184,4.184,0,0,1-.828-1.408,5.188,5.188,0,0,1-.285-1.746,5.413,5.413,0,0,1,.285-1.782,4.223,4.223,0,0,1,.822-1.431,3.756,3.756,0,0,1,1.322-.96,4.311,4.311,0,0,1,1.769-.351,4.158,4.158,0,0,1,1.272.2,3.654,3.654,0,0,1,1.113.582,3.115,3.115,0,0,1,.818.95,3.257,3.257,0,0,1,.395,1.3H36.837a1.814,1.814,0,0,0-.646-1.077,1.864,1.864,0,0,0-1.163-.358,2.2,2.2,0,0,0-1.077.245,2,2,0,0,0-.719.659,2.921,2.921,0,0,0-.4.941,4.743,4.743,0,0,0-.126,1.09,4.269,4.269,0,0,0,.126,1.05,2.832,2.832,0,0,0,.4.918,2.057,2.057,0,0,0,.719.655,2.182,2.182,0,0,0,1.077.245,1.84,1.84,0,0,0,2.041-1.841H35.178V23.167h3.587V27.79h-1.2l-.192-.968a2.767,2.767,0,0,1-1.109.9Zm5.549-8.486V26.2h4.169v1.587H39.941V19.239ZM5.336,23.548a5.271,5.271,0,0,1,1.816-3.759l2.125,8.088h1.464l2.06-7.31,2.031,7.31H16.3l2.531-9.3H17.184l-1.65,7.137L13.543,18.57h-1.51l-1.991,7.137-1.61-6.959c2.853-1.964,7.411-3.238,12.547-3.238,4.813,0,9.128,1.014,12,2.769-3.127-2.941-8.747-5-15.166-5.009C7.973,13.27,0,17.871,0,23.548S7.973,33.832,17.806,33.832c6.4,0,12-2.06,15.137-4.982-2.868,1.746-7.168,2.736-11.964,2.736-8.642,0-15.643-3.6-15.643-8.038Zm17.617-1.06a2.269,2.269,0,0,0-.851-.736,2.64,2.64,0,0,0-1.192-.259,3.211,3.211,0,0,0-1.341.268,2.516,2.516,0,0,0-.937.742,3.9,3.9,0,0,0-.713,2.432,3.964,3.964,0,0,0,.186,1.232,2.874,2.874,0,0,0,.546.987,2.624,2.624,0,0,0,2.064.891,3.711,3.711,0,0,0,1.113-.142,2.255,2.255,0,0,0,.586-.285,2.6,2.6,0,0,0,.851-.937,2.465,2.465,0,0,0,.278-.772l.013-.105H22.344l0,.086a1.447,1.447,0,0,1-1.473,1.1c-1.318,0-1.633-.954-1.656-1.8h4.419v-.1a6.036,6.036,0,0,0-.163-1.468,3.526,3.526,0,0,0-.514-1.142Zm-2.182.1c.977,0,1.5.527,1.6,1.61H19.2A1.658,1.658,0,0,1,20.77,22.584Zm8.964.8a3.018,3.018,0,0,0-.514-.987,2.4,2.4,0,0,0-.837-.663,2.606,2.606,0,0,0-1.123-.241,2.186,2.186,0,0,0-1.017.245,2.108,2.108,0,0,0-.663.537V19.415H24.371v8.456h1.15v-.577a1.847,1.847,0,0,0,.4.395,2.01,2.01,0,0,0,1.2.354,2.621,2.621,0,0,0,1.341-.337,2.5,2.5,0,0,0,.858-.851,3.7,3.7,0,0,0,.45-1.119,5.1,5.1,0,0,0,.132-1.155,3.805,3.805,0,0,0-.172-1.2Zm-1.086,1.374a2.968,2.968,0,0,1-.387,1.61,1.307,1.307,0,0,1-1.159.623c-.722,0-1.569-.5-1.569-1.931a4.107,4.107,0,0,1,.259-1.61,1.293,1.293,0,0,1,1.286-.855,1.334,1.334,0,0,1,1.341.786,3.347,3.347,0,0,1,.23,1.378Z" fill="#152369"/>
  </g>
</svg>
