<svg id="Layer_1" data-name="Layer 1" xmlns="http://www.w3.org/2000/svg" viewBox="0 0 375.02 473"><title>12</title><path d="M73,249.36q0-102.74,0-205.47c0-19.36,11.73-31.05,31.15-31.05H291.61c18.75,0,30.63,11.74,30.65,30.51q.08,81.24-.07,162.48c0,4.18.8,5.35,5.33,5.69,11.22.84,21.68-3.2,32.62-3.94,44.45-3,82.56,28.58,87.4,74C452.19,325,421.4,362.9,380.22,370,369.07,371.94,358,372,347,369c-7.24-2-14.54-1.27-21.83-1.56-3.67-.15-2.91,2.33-2.91,4.35,0,28.16.07,56.33,0,84.49-.06,15.27-9.13,26.3-23.62,29.12a34.05,34.05,0,0,1-6.46.42q-94.49,0-189,0c-18.25,0-30.19-12.08-30.2-30.5Q73,352.34,73,249.36Z" transform="translate(-72.99 -12.83)" style="fill:#252f61"/><path d="M82,249.35q0-103,0-206c0-6,1.55-11.11,5.54-15.56,2-2.28,3.58-2.56,6-.12,12.14,12.13,24.61,23.92,36.69,36.1a19.41,19.41,0,0,0,15.13,6.08c17-.24,34,.07,51-.19,4.1-.06,4.82,1.25,4.79,5-.16,25.49-.09,51-.08,76.49,0,15.65,8,23.67,23.72,23.7,6.67,0,13.33,0,20,0,16.32.09,28.06,11.63,28.37,27.87.16,8.56.16,8.56-8.62,8.56-19.66,0-39.33-.18-59,.08-9.13.12-17.57-3.36-26.6-3.92-34.22-2.12-67.19,17.7-80.53,48.94-14,32.68-6.16,70.06,19.77,93.26,22,19.66,47.53,25.68,76.13,19a40.76,40.76,0,0,1,9.36-1.2c34.83,0,69.65.09,104.48-.09,4.22,0,5.19,1.12,5.16,5.23-.19,27.16-.53,54.33.07,81.48.35,15.74-11,23.69-22.76,22.87-8.25-.57-8.28-.1-8.4-8.38-.18-13.42-8.53-21.72-22-21.73q-62.49,0-125,0c-14,0-22.19,8.36-22.27,22.5,0,7.5-.07,7-7.57,7.59-14.32,1-23.7-8.93-23.6-23.62C82.28,385.33,82,317.34,82,249.35Z" transform="translate(-72.99 -12.83)" style="fill:#fefefe"/><path d="M313.21,123.85c0,27.31-.13,54.63.13,81.94,0,4.78-1.45,5.81-5.82,5.6-7-.34-14-.29-21,0-3.58.14-4.58-1.07-4.37-4.5.75-11.85-2.33-22.39-11.18-30.82a35.76,35.76,0,0,0-24.77-10.2c-7.82-.15-15.66,0-23.48-.05s-12.56-4.65-12.59-12.41c-.1-26.65,0-53.29-.13-79.94,0-3.35,1.26-3.74,4.07-3.71,12.49.12,25-.05,37.47.1a16.85,16.85,0,0,0,12.91-5.33C276.65,52.21,289,40.11,301.12,27.69c2.78-2.86,4.41-2.41,6.7.16a20.85,20.85,0,0,1,5.42,14.56C313.16,69.56,313.2,96.71,313.21,123.85Z" transform="translate(-72.99 -12.83)" style="fill:#fefefe"/><path d="M365.86,351.2A61.87,61.87,0,1,1,428,289.46,61.74,61.74,0,0,1,365.86,351.2Z" transform="translate(-72.99 -12.83)" style="fill:#fefefe"/><path d="M173.69,351.2a61.87,61.87,0,1,1,62.06-61.82A61.71,61.71,0,0,1,173.69,351.2Z" transform="translate(-72.99 -12.83)" style="fill:#fefefe"/><path d="M224,354.34c20.57-17.14,31.67-38.61,31.71-64.88s-11-47.83-32.06-65.4h91.43c-46.71,38.38-36.36,102.39.42,130.28Z" transform="translate(-72.99 -12.83)" style="fill:#fefefe"/><path d="M249,456c4.16-.05,8.33-.24,12.49-.14,6.9.17,11.36,4.77,11.61,11.75.32,9.18.32,9.2-8.61,9.18-5.16,0-10.33-.09-15.49-.15A29.11,29.11,0,0,1,249,456Z" transform="translate(-72.99 -12.83)" style="fill:#9c56e6"/><path d="M266,22h26.38L265.93,49.79c-2.1-.15-2.2-1.9-2.27-3.28a186.72,186.72,0,0,1,0-20.91A3.9,3.9,0,0,1,266,22Z" transform="translate(-72.99 -12.83)" style="fill:#9c55e5"/><path d="M168,22h28c1.76,1,4.26-.69,5.72,1.51,1.56,5.56.7,11.25.72,16.87,0,6.13.68,12.3-.52,18.4a3.22,3.22,0,0,1-1.18,1.41c-3,0-6.1.66-9.09-.37-1.4-1.88-1.18-4.09-1.2-6.22-.05-7.3,0-14.6,0-21.89,0-7,0-7-7.21-7.41-3,.06-6,.13-9,0C172,24,169.28,25.05,168,22Z" transform="translate(-72.99 -12.83)" style="fill:#d8496b"/><path d="M233,22h13c0,1-.58,1.47-1.29,1.93-1.95.72-2.1,2.47-2.13,4.1-.17,8.78-.15,17.56,0,26.33,0,1.76,0,3.83,2.67,4,1.7,0,3.39,0,5.08.08s3.65,0,5,1.53c-7.38,1.71-14.83.58-22.25.62-1.5-1.39-1.52-3.27-1.54-5.08q-.15-14.19,0-28.38C231.46,25.31,231.51,23.44,233,22Z" transform="translate(-72.99 -12.83)" style="fill:#a449b1"/><path d="M134,22h1.05c2.43,1.1,5.43-.85,7.66,1.42,1.25,12.05,1.69,24.09-.25,36.12a2,2,0,0,1-2.64.36,23.92,23.92,0,0,1-5.93-5.7c-2.06-4-1.47-8.42-1.5-12.7,0-4.81-.09-9.61,0-14.42C132.48,25.29,132.51,23.43,134,22Z" transform="translate(-72.99 -12.83)" style="fill:#fd7d52"/><path d="M142,22.84c-2.3-.34-4.78.76-6.94-.81h14c1.8,1,4.36-.76,5.78,1.62.95,12,1.81,24.08-.46,36.07-2.43,1.06-4.93.64-7.43.32-1.76-1.92-1.43-4.33-1.46-6.61-.07-7.62-.1-15.25,0-22.87C145.54,27.32,144.75,24.68,142,22.84Z" transform="translate(-72.99 -12.83)" style="fill:#fa7556"/><path d="M255.24,60,250,59.83c-1.59-1.76-1.55-4-1.56-6.12,0-8.13-.07-16.27,0-24.4.06-6.37.29-6.57,6.49-7.29h7c-3.53,3.36-3.47,7.65-3.51,12.1-.06,7.89.74,15.81-.5,23.67A3.43,3.43,0,0,1,255.24,60Z" transform="translate(-72.99 -12.83)" style="fill:#a04dc0"/><path d="M168,22c1.81,1.52,4,.54,6,.83a4.34,4.34,0,0,1,1.28,2.63c.22,11.2,1.08,22.41-.46,33.59-1.81,2.45-4.65.52-6.79,1.59l-5,0a2.22,2.22,0,0,1,.6-1.61c2.26-1.87,1.82-4.5,1.85-6.93.09-7.81,0-15.61.06-23.42,0-2.29-.34-4.7,1.46-6.62Z" transform="translate(-72.99 -12.83)" style="fill:#e35370"/><path d="M257.91,57.79c-1.88-2.92-.77-6.15-.86-9.22-.19-6.49.27-13-.18-19.48-.29-4.18.93-6.44,5-7.07h4a82.87,82.87,0,0,0,0,27.77A42.87,42.87,0,0,1,257.91,57.79Z" transform="translate(-72.99 -12.83)" style="fill:#9f4ec9"/><path d="M201,22.84c-1.66-.23-3.49.57-4.95-.84l14,0c2.71.25,5.31.55,5.38,4.26.17,10.23.28,20.45-.07,30.68a4.73,4.73,0,0,1-1,2.75c-2.11,1.07-4.29.66-6.47.29-1.72-1.94-1.4-4.35-1.42-6.64-.07-7-.25-14,.05-20.91C206.73,27.83,205.88,24.29,201,22.84Z" transform="translate(-72.99 -12.83)" style="fill:#c3416e"/><path d="M116,22h7c7.45.75,7.46.75,7.49,8.67,0,3.63.11,7.27-.07,10.89-.12,2.47-.19,5-2.61,6.6-3.44-3-7.07-5.73-9.85-9.39.15-2.44.54-4.86.71-7.3A13.42,13.42,0,0,0,116,22Z" transform="translate(-72.99 -12.83)" style="fill:#fca75b"/><path d="M222,22H228c1.6,1.55,1.53,3.6,1.54,5.56.07,8.92.1,17.85,0,26.77,0,2.61.14,5.51-3.44,6.23H218a1.08,1.08,0,0,1,.41-1.41,6.42,6.42,0,0,1,1.43-.81c2.2-1.73,1.63-4.23,1.65-6.47.08-8.32,0-16.65,0-25C221.52,25.29,221.2,23.59,222,22Z" transform="translate(-72.99 -12.83)" style="fill:#b9427e"/><path d="M226.07,60.6c2-1.24,1.95-3.2,1.94-5.23,0-11.11,0-22.22,0-33.33h5q0,19.28,0,38.55Z" transform="translate(-72.99 -12.83)" style="fill:#b64385"/><path d="M254.92,22c-4.08.62-5.23,2.81-5.06,7,.4,10.25.13,20.53.13,30.8h-5a7.17,7.17,0,0,1-1.56-5.1q-.14-13.4,0-26.8a7.19,7.19,0,0,1,1.56-5.1l1-.81Z" transform="translate(-72.99 -12.83)" style="fill:#a14cbb"/><path d="M219,59.83h-1a3.94,3.94,0,0,1-4,0c0-10.6-.17-21.21.1-31.81.09-3.35-.86-5.22-4-6h5c3.1.15,5.4,1,5.44,4.81.09,9.62.14,19.25,0,28.87A6.05,6.05,0,0,1,219,59.83Z" transform="translate(-72.99 -12.83)" style="fill:#bf4174"/><path d="M116,22c3.06.77,4.71,2.47,4,5.83-.82,3.62,1.85,7.87-2,11L100.36,22Z" transform="translate(-72.99 -12.83)" style="fill:#f9ae5f"/><path d="M132,476.67c-3.25-.05-8.33,1.65-9.32-.73a16.52,16.52,0,0,1,.65-13.54c1.36-2.65,3.31-5,6.59-5.6a1.86,1.86,0,0,1,3,1.44C133.6,464.41,134.92,470.66,132,476.67Z" transform="translate(-72.99 -12.83)" style="fill:#fab361"/><path d="M162,476.67h-8c-2.62-4.08-1.22-8.63-1.34-13-.09-3.24-1.1-5.32-4.22-6.26A1.05,1.05,0,0,1,148,456H157c1.77,1,4.25-.71,5.71,1.49C163.61,463.95,164.76,470.39,162,476.67Z" transform="translate(-72.99 -12.83)" style="fill:#fa7755"/><path d="M132,476.67c0-5.22,0-10.44,0-15.66,0-1.68.63-3.8-2.06-4.21,2.24-1.54,4.72-.85,7.14-.76,1.26.6,3.11-.15,3.82,1.7.65,6.35,1.91,12.74-.88,18.93Z" transform="translate(-72.99 -12.83)" style="fill:#fcac5d"/><path d="M167,22c0,11.13-.06,22.27.07,33.4,0,3-.52,4.92-4,4.42l-.62-.63c-1.68-4.51-.71-9.2-.86-13.8-.17-5.3.08-10.62-.11-15.92-.07-2,.57-4.57-2.54-5.16a7.15,7.15,0,0,1-4.9-1.5c-1.66-.22-3.48.57-4.94-.81Z" transform="translate(-72.99 -12.83)" style="fill:#f4695f"/><path d="M173,456l1.08,0c2.41,1.15,5.37-.82,7.61,1.34,1.1,6.49,2.08,13-.67,19.32h-8A29.69,29.69,0,0,1,173,456Z" transform="translate(-72.99 -12.83)" style="fill:#e25270"/><path d="M127.86,48.21c2.17-7.47.79-15.11,1.08-22.67.17-4.53-4.41-1.5-5.9-3.5h11q-.05,16.1-.11,32.19Z" transform="translate(-72.99 -12.83)" style="fill:#fda058"/><path d="M219,59.83c0-10.61-.17-21.22.1-31.81.09-3.35-.87-5.21-4-6h7c1.46,2.26.92,4.8.93,7.24,0,8.9-.09,17.81.08,26.71C223.11,59.1,221.91,60.2,219,59.83Z" transform="translate(-72.99 -12.83)" style="fill:#bd4178"/><path d="M191,456l11,0c4.45-.24,5.73,2.39,5.42,6.21-.39,4.82,1.35,9.87-1.5,14.44h-7c-2.66-4.22-1.09-8.9-1.35-13.36-.18-3-.95-5.07-4.32-5.24C192.23,457.72,191,457.49,191,456Z" transform="translate(-72.99 -12.83)" style="fill:#c6416a"/><path d="M181,476.67q0-9.92,0-19.83c7.7-1.25,8.66-.64,8.52,6.8-.08,4.36,1.31,9-1.52,13Z" transform="translate(-72.99 -12.83)" style="fill:#de4e70"/><path d="M173,456q0,10.32,0,20.65h-6c-2.61-3.87-1.25-8.24-1.38-12.38-.1-3.18-.75-5.77-3.62-7.45-1.66-.22-3.48.57-4.94-.81Z" transform="translate(-72.99 -12.83)" style="fill:#f56b5e"/><path d="M206,476.67c0-4.92-.28-9.86.1-14.75.27-3.39-1-5.11-4-5.9h7c1.48.49,3.69.17,3.88,2.32.54,6.14,1.91,12.35-1,18.33Z" transform="translate(-72.99 -12.83)" style="fill:#c14171"/><path d="M249,456q0,10.33,0,20.65h-6c-2.88-6-1.69-12.23-.89-18.34.42-3.24,3.93-1.33,5.82-2.32Z" transform="translate(-72.99 -12.83)" style="fill:#9f4fcb"/><path d="M193,456.83c4.74-.82,6.52,1,6.08,5.91-.41,4.61-.1,9.28-.11,13.93h-6A27.46,27.46,0,0,1,193,456.83Z" transform="translate(-72.99 -12.83)" style="fill:#d8486b"/><path d="M148,456.83c4.74-.8,6.49,1.08,6.06,5.93-.41,4.6-.09,9.27-.09,13.91h-6A27.23,27.23,0,0,1,148,456.83Z" transform="translate(-72.99 -12.83)" style="fill:#fe7e51"/><path d="M193,456.83v19.84h-5q0-6.47,0-12.94c0-6.89,0-6.89-7-6.89-2.31-.34-4.79.78-6.94-.82h17Z" transform="translate(-72.99 -12.83)" style="fill:#db4b6e"/><path d="M214.06,456h6c.74.4,1.61.85,1.72,1.69.78,6.35,2,12.74-.77,19h-5c-1.52-1.57-1.46-3.58-1.44-5.53C214.61,466.1,214.42,461.06,214.06,456Z" transform="translate(-72.99 -12.83)" style="fill:#ba427e"/><path d="M233,476.67h-5c-2.87-6-1.49-12.19-1-18.33.19-2.15,2.41-1.83,3.88-2.32h6c-2.65,3.49-2.51,7.54-2.53,11.64C234.38,470.7,235.22,473.95,233,476.67Z" transform="translate(-72.99 -12.83)" style="fill:#a34bb6"/><path d="M247.93,456c-4.64.46-5.34,3.33-5,7.39.35,4.4.08,8.85.09,13.27h-5c-2.87-6-1.59-12.2-.92-18.32.29-2.71,3.17-1.64,4.85-2.33Z" transform="translate(-72.99 -12.83)" style="fill:#a04dc3"/><path d="M241.92,456c-3.07.79-4.3,2.51-4,5.9.38,4.89.1,9.83.1,14.75h-5c0-4.92.28-9.86-.1-14.75-.26-3.39,1-5.11,4-5.91Z" transform="translate(-72.99 -12.83)" style="fill:#a14cbc"/><path d="M162,456.84c3.82-.57,5.37.83,5.08,4.9-.35,5-.08,10-.08,14.93h-5Q162,466.75,162,456.84Z" transform="translate(-72.99 -12.83)" style="fill:#f7705a"/><path d="M148,456.83q0,9.92,0,19.84h-4c-2.61-3.79-1.1-8.07-1.43-12.13-.23-2.81.11-5.74-2.57-7.7-1,0-2.16.18-2.95-.8H148Q148,456.43,148,456.83Z" transform="translate(-72.99 -12.83)" style="fill:#fda058"/><path d="M230.92,456a4.41,4.41,0,0,0-3,4.87c.24,5.25.08,10.52.08,15.78h-4A31.29,31.29,0,0,1,224,456Z" transform="translate(-72.99 -12.83)" style="fill:#a549af"/><path d="M214.06,456c1.69,1.15,2,2.78,2,4.74-.11,5.3,0,10.61,0,15.91h-4c0-5.26-.17-10.53.08-15.78a4.42,4.42,0,0,0-3-4.87Z" transform="translate(-72.99 -12.83)" style="fill:#be4177"/><path d="M140,456.84c3-.38,4.17.78,4.06,3.9-.2,5.3-.06,10.62-.06,15.93h-4Q140,466.75,140,456.84Z" transform="translate(-72.99 -12.83)" style="fill:#fda55a"/><path d="M224,456q0,10.32,0,20.64h-3c-.5-6.87,1.08-13.84-.95-20.64Z" transform="translate(-72.99 -12.83)" style="fill:#b64386"/><path d="M168,60.65c1.82-1.48,4-.52,6-.82,2.73-2.14,5.93-1.36,9-1.44s6.27-.7,9,1.44h9q.33.26.22.53t-.21.27Z" transform="translate(-72.99 -12.83)" style="fill:#c74169"/><path d="M163,59.85q0,.38,0,.76c-7.73-.16-15.5,1.17-23.18-.68l2.16-.11a3.67,3.67,0,0,1,5,0h7a6.65,6.65,0,0,1,4.93-1.33A5.66,5.66,0,0,1,163,59.82Z" transform="translate(-72.99 -12.83)" style="fill:#f4695f"/><path d="M201,60.62q0-.4,0-.79h0a5.34,5.34,0,0,1,7,0h6l4,0q0,.38,0,.75Z" transform="translate(-72.99 -12.83)" style="fill:#bd4178"/><path d="M355.92,312.39c0-12.93,0-12.9-13.18-12.93-13,0-10.78,1-10.82-10.88,0-9.57-2-9.29,9.38-9.28,14.61,0,14.54,0,14.64-14.57.07-9.67-2-9.46,9.24-9.42,11.94,0,10.75-1.21,10.77,10.62,0,13.38,0,13.35,13.26,13.38,11.92,0,10.72-1.2,10.74,10.64,0,9.51,0,9.51-9.41,9.51-14.59,0-14.59,0-14.59,14.45,0,9.55,0,9.58-9.38,9.54C353.74,323.42,356.16,324.48,355.92,312.39Z" transform="translate(-72.99 -12.83)" style="fill:#252f61"/><path d="M205.65,279.3c4.5,0,9,.09,13.5,0,3.42-.08,4.78,1.45,4.71,4.81-.35,18.27,2.57,15.07-14.65,15.37-5.5.09-11-.08-16.5,0-3.47.08-5-1-5.11-4.86-.35-15.35-.47-15.35,15-15.35Z" transform="translate(-72.99 -12.83)" style="fill:#263061"/><path d="M141.74,299.46q-7,0-14,0c-2.83,0-4.38-1.22-4.16-4.21,0-.17,0-.33,0-.5.39-18.61-3-15.07,14.84-15.44,5.49-.11,11,.06,16.47,0,3.33-.06,4.87,1.3,4.82,4.71-.31,18.39,2.48,15.16-14.5,15.49C144.07,299.49,142.9,299.47,141.74,299.46Z" transform="translate(-72.99 -12.83)" style="fill:#263062"/><path d="M163.61,321.23c0-4.5.09-9,0-13.49-.09-3.2,1.31-4.53,4.44-4.46,3.83.09,7.66.06,11.49,0,2.89,0,4.28,1.31,4.27,4.22,0,9.16,0,18.32,0,27.48,0,3.15-1.45,4.53-4.55,4.48-3.83-.06-7.66,0-11.49,0-2.89,0-4.22-1.31-4.16-4.25C163.68,330.55,163.61,325.89,163.61,321.23Z" transform="translate(-72.99 -12.83)" style="fill:#252f61"/><path d="M163.61,257.25c0-4.66.05-9.33,0-14,0-2.72,1.24-4,3.9-3.94,4,0,8,0,12,0,2.89,0,4.3,1.28,4.29,4.2,0,9.33,0,18.65,0,28,0,2.64-1.39,3.73-4,4C164,277.2,163.6,276.9,163.6,261.24Q163.6,259.25,163.61,257.25Z" transform="translate(-72.99 -12.83)" style="fill:#252f61"/><path d="M183,59.82h-9q0-18.5,0-37h9a7.18,7.18,0,0,1,1.57,5.1q.14,13.4,0,26.8A7.16,7.16,0,0,1,183,59.82Z" transform="translate(-72.99 -12.83)" style="fill:#e05070"/><path d="M183,59.82q0-18.49,0-37c9,0,9,0,9,8.78q0,14.1,0,28.21Z" transform="translate(-72.99 -12.83)" style="fill:#dc4c6e"/><path d="M208,59.83h-7q0-18.49,0-37c7,0,7,0,7,6.8Q208,44.73,208,59.83Z" transform="translate(-72.99 -12.83)" style="fill:#c74169"/><path d="M245,22.83q0,18.5,0,37c-2.94.38-4.11-.75-4.06-3.86q.24-14.63,0-29.26C240.88,23.59,242.05,22.47,245,22.83Z" transform="translate(-72.99 -12.83)" style="fill:#a34bb6"/><path d="M147,59.82h-5q0-18.49,0-37c3.75-.55,5.2.76,5.1,4.83C146.8,38.38,147,49.1,147,59.82Z" transform="translate(-72.99 -12.83)" style="fill:#fb7953"/><path d="M159,59.82h-5q0-18.49,0-37h5a7.18,7.18,0,0,1,1.56,5.09q.14,13.4,0,26.79A7.13,7.13,0,0,1,159,59.82Z" transform="translate(-72.99 -12.83)" style="fill:#f76f5a"/><path d="M159,59.82q0-18.49,0-37c3.45-.51,4.09,1.31,4.05,4.34-.14,10.88-.06,21.76-.07,32.64Z" transform="translate(-72.99 -12.83)" style="fill:#f56d5c"/></svg>