<svg id="Layer_1" data-name="Layer 1" xmlns="http://www.w3.org/2000/svg" viewBox="0 0 390.03 477.49"><title>15</title><path d="M435.31,486.27l-65,0c-2.37-2.7-1.6-6-1.6-9.09q-.07-92.89,0-185.78,0-49.19,0-98.38c0-1.83,0-3.66.15-5.49-.31-13.16-.18-26.32-.08-39.48,0-5.76,1.36-7.07,7.18-7.12q27-.23,54,0c5.5.05,6.67,1.4,7,6.85.1,1.66.06,3.33.06,5q0,162,0,323.91C436.88,479.91,437.72,483.38,435.31,486.27Z" transform="translate(-55.32 -11.45)" style="fill:#a04ec3"/><path d="M370.18,187.42q.05,28,.1,56,0,121.43,0,242.86l-63,.06c-2.44-2.87-1.61-6.35-1.61-9.59q-.07-112.1,0-224.21c0-6.66-.19-13.31.13-20-.3-13.13-.17-26.26-.08-39.38,0-6,1.34-7.23,7.5-7.27,17.12-.12,34.24-.08,51.35,0C366.55,185.89,368.58,185.9,370.18,187.42Z" transform="translate(-55.32 -11.45)" style="fill:#be4176"/><path d="M307.26,232.39q0,127,0,253.92l-64-.07c-1.64-1.54-1.6-3.61-1.6-5.58,0-58-.22-116.1.1-174.14-.31-22.78-.15-45.57-.08-68.35,0-6,1.36-7.23,7.51-7.27,17.46-.11,34.93-.08,52.39,0C303.61,230.88,305.63,230.94,307.26,232.39Z" transform="translate(-55.32 -11.45)" style="fill:#db4c6e"/><path d="M138.21,154.32c12.78,0,23,10.3,22.22,23.08-.24,4.07,1,5.59,4.6,6.44a44.48,44.48,0,0,1,7,2.58c6,2.56,11.82,4.86,17.75-.37a7.09,7.09,0,0,1,5.18-1.44c5.62.91,7.69-2.5,9.94-6.69q17.37-32.29,35.18-64.36c1.43-2.58,1.69-4.33-.18-7a22.05,22.05,0,0,1,1.64-27.26,22.5,22.5,0,0,1,39.12,18.92c-.44,2.3-.2,3.63,1.86,4.95Q293.87,110.46,305,118a4.43,4.43,0,0,0,5,.44c3.52-1.64,7.41-2.61,11.18-1.67,3.11.78,4.34-.23,5.71-2.79Q343.31,83.22,360,52.55c1.31-2.41,1.5-4.14-.12-6.7a21.86,21.86,0,0,1,2.93-27.54A22.62,22.62,0,0,1,401,39.42c-2.51,10.18-11.41,17.11-22.42,17-2.76,0-4.09.8-5.36,3.18q-16.89,31.7-34.06,63.26c-1.18,2.18-1.49,3.82-.25,6.31a22.16,22.16,0,0,1-4.73,26.53,22.79,22.79,0,0,1-26.43,3.16c-8.79-4.93-13.12-14.38-10.89-24.62.54-2.47-.08-3.58-2-4.82-7.26-4.71-14.42-9.58-21.64-14.36-2.71-1.79-17.79,1.83-19.32,4.62q-18.7,34.13-37.42,68.25c-1.31,2.36-1.2,3.9.36,6.18a21.85,21.85,0,0,1-.38,26.11,22.38,22.38,0,0,1-23.93,8.35c-9.41-2.49-16-10.08-16.58-20.12-.21-3.91-1.58-5.48-5-6.41a80.73,80.73,0,0,1-9.34-3.46c-5.55-2.26-10.77-4.2-16.82-.45-3.65,2.26-8.46,1.81-12.66.27-2.28-.84-3.54-.29-5,1.51-8.93,10.77-17.9,21.52-27.09,32.07-1.86,2.14-1.17,3.77-.58,5.83,2.61,9.21.38,17.17-6.7,23.56A22.3,22.3,0,0,1,68,264.59c-8.52-4.33-12.8-11.44-12.63-21,.26-14.32,14-24.57,28.23-20.9,3,.77,4.43.2,6.24-2q12.57-15.22,25.45-30.19c1.92-2.23,2.36-4,1.4-7A22.3,22.3,0,0,1,138.21,154.32Z" transform="translate(-55.32 -11.45)" style="fill:#252f61"/><path d="M243.24,306.39q0,89.92,0,179.84l-65,.07c-1.61-1.55-1.64-3.59-1.64-5.58,0-43.07-.22-86.15.1-129.22-.3-13.13-.17-26.26-.08-39.39,0-5.84,1.32-7.16,7-7.21,18-.16,35.9-.09,53.86,0C239.6,304.88,241.62,304.93,243.24,306.39Z" transform="translate(-55.32 -11.45)" style="fill:#f76f5b"/><path d="M243.24,306.39c-20.11,0-40.22.15-60.32,0-3.65,0-4.8.81-4.74,4.63.23,13.46.06,26.92,0,40.38-2.2,2-5,1.66-7.59,1.67-15,0-30,0-44.95,0-6.38,0-6.76.38-6.76,6.82q-.05,58.93,0,117.87c0,2.95.56,6-1.43,8.69-2,4.34-5.81,1.58-8.65,1.77s-1.45-2.81-1.45-4.32c-.08-46,0-92-.16-138,0-3.79,1-4.65,4.66-4.6,17.32.21,34.66,0,52,.2,3.9.06,4.62-1.13,4.55-4.72-.23-11.66.09-23.33-.18-35-.1-4.14.62-5.62,5.27-5.54,18.32.33,36.65,0,55,.22,3.79,0,5-.77,5-4.81-.22-21.66,0-43.32-.19-65,0-3.49.83-4.42,4.36-4.39,18.49.19,37,0,55.48.18,3.58,0,4.39-1,4.33-4.42-.22-12,.12-24-.2-36-.11-4.13,1.29-4.81,5-4.77,17.83.18,35.65,0,53.48.16,3.55,0,4.84-.58,4.74-4.52-.3-12.15,0-24.32-.18-36.48,0-3.2.74-4.17,4.07-4.16q38.49.22,77,0c3.28,0,4.1.87,4.1,4.12q-.13,172.94,0,345.88c0,3.17-.69,4.59-4.06,4.11a56.24,56.24,0,0,0-6-.24q0-168.62,0-337.23c0-7.48.9-6.53-6.72-6.55-17.65,0-35.31.16-53-.13-4.58-.08-5.5,1.35-5.42,5.61.24,13.15,0,26.31,0,39.46-19.41,0-38.82.13-58.23,0-3.67,0-4.83.9-4.76,4.68.22,13.43.07,26.87.07,40.31-19.78,0-39.56.16-59.34,0-3.71,0-4.75.93-4.73,4.69C243.36,260.18,243.26,283.29,243.24,306.39Z" transform="translate(-55.32 -11.45)" style="fill:#252f61"/><path d="M117.44,486.48q-.08-51.69-.16-103.38c0-8.82.22-17.66-.1-26.47-.15-4.06.82-5.33,5.1-5.27,18.64.23,37.29.06,55.94,0q.05,67.45.1,134.9Z" transform="translate(-55.32 -11.45)" style="fill:#fca85c"/></svg>