<svg id="Layer_1" data-name="Layer 1" xmlns="http://www.w3.org/2000/svg" viewBox="0 0 474.94 327.6"><title>14</title><path d="M250.81,86.4H437.24c12.83,0,18.28,5.49,18.28,18.44q0,130.74,0,261.47c0,.79,0,1.58,0,2.36-.12,2.13-.28,4.27-.42,6.4,2.33.12,4.67.32,7,.33,6.29,0,12.59,0,18.88,0,5.68,0,7.67,2.54,6.5,8.1-1.49,7.06-6,12-11.7,16-8.92,6.23-19,9.52-29.59,11.66A143.12,143.12,0,0,1,417.61,414q-168.26,0-336.52-.07c-16.3,0-32.25-2.52-47.28-9.33a45,45,0,0,1-15-10.4,22.27,22.27,0,0,1-5.41-9.79c-1.57-6.37.33-9,6.78-9,7.55,0,15.1-.07,22.65,0,2.36,0,3.49-.27,2.68-3.09a22.34,22.34,0,0,1-.38-6.09q0-130.5,0-261c0-13.58,5.28-18.88,18.8-18.88Z" transform="translate(-12.87 -86.4)" style="fill:#252f61"/><path d="M250.43,375.43H63.5c-7.68,0-8.9-1.25-8.9-9.09q0-130.52,0-261c0-8.07,1.31-9.42,9.15-9.42H437.14c7.39,0,8.89,1.47,8.9,8.73q0,131,0,262c0,7.55-1.27,8.84-8.68,8.84Z" transform="translate(-12.87 -86.4)" style="fill:#fefefe"/><path d="M23.54,384.92h5.18q85.91,0,171.82,0c2.55,0,4.73,0,6.54,2.5s4.62,3.06,7.6,3.06q35.64,0,71.28,0c2.63,0,5.41-.42,6.88-2.45,2.35-3.25,5.37-3.11,8.68-3.1q84.73,0,169.46,0h5.7c-2.26,4.17-5.46,6.33-8.77,8.28-10.79,6.34-22.73,8.89-35,10.39a185,185,0,0,1-22.62,1q-161.67,0-323.34,0c-16,0-31.72-1.55-46.7-7.59C34.17,394.49,28.37,391.4,23.54,384.92Z" transform="translate(-12.87 -86.4)" style="fill:#fefefe"/><path d="M250.32,115.5H407.51c13.05,0,18.27,5.21,18.27,18.25q0,102,0,203.93c0,13-5.3,18.34-18.27,18.34H93.12c-13,0-18.26-5.31-18.26-18.34q0-102,0-203.93c0-13.06,5.2-18.25,18.26-18.25Z" transform="translate(-12.87 -86.4)" style="fill:#252f61"/><path d="M250.34,125H407.53c7.76,0,8.73,1,8.73,8.65q0,102.2,0,204.4c0,7.38-1,8.39-8.53,8.39H92.88c-7.47,0-8.5-1-8.5-8.42q0-102.2,0-204.4c0-7.63,1-8.62,8.77-8.62Z" transform="translate(-12.87 -86.4)" style="fill:#fefefe"/><path d="M250.82,152.14c0,2,.34,4.16-.06,6.12-1.4,6.87,2,9.71,8,12.16,19.48,7.88,38.67,16.49,58,24.65,3.53,1.49,4.92,3.48,4.89,7.43-.17,25.64,0,51.27-.16,76.91,0,2.92.7,4.46,3.55,5.55,5.27,2,10.33,4.56,15.51,6.8,2.54,1.1,4.69,2.59,3.41,5.64s-3.79,2.61-6.36,1.43c-5.41-2.49-10.93-4.77-16.3-7.35a7.78,7.78,0,0,0-7.11-.06c-20.7,9-41.5,17.86-62.18,26.94a11.65,11.65,0,0,1-10.26-.06c-20.54-9-41.19-17.79-61.75-26.75a8.2,8.2,0,0,0-7.55,0c-5.5,2.68-11.18,5-16.73,7.53-2.36,1.09-4.48,1-5.68-1.33-1.31-2.6,0-4.46,2.55-5.59,5.31-2.34,10.53-4.91,15.92-7,2.88-1.14,3.92-2.57,3.9-5.81-.17-25.32,0-50.64-.19-76,0-4.42,1.26-6.74,5.45-8.49,20.7-8.64,41.24-17.67,61.89-26.42,2.72-1.15,3.73-2.56,3.64-5.56-.23-7.54,0-15.1-.09-22.65,0-2.64.59-4.92,3.65-5,3.36-.09,4,2.3,4,5.14C250.77,144.28,250.82,148.21,250.82,152.14Z" transform="translate(-12.87 -86.4)" style="fill:#252f61"/><path d="M227.83,303.58a157.54,157.54,0,0,1-17.5-7.38c-.84-7.1.78-14.13.66-21.2,2-3.15,1-6.27-.14-9.39-1.15-14,.87-27.94.8-41.91a4.59,4.59,0,0,1,1.46-3.83l16,7.33c1.64,1.81,1.45,4.08,1.48,6.26.37,21.68-1.56,43.33-1,65C229.64,300.31,229.67,302.31,227.83,303.58Z" transform="translate(-12.87 -86.4)" style="fill:#7ec9a9"/><path d="M267.81,302.94l-16.23,7.33c-1.12-1.4-.73-2.68-.73-3.83,0-23.23,0-46.47-.09-69.7,0-2.92.69-4.62,3.56-5.62,4-1.39,7.83-3.16,11.74-4.77,2.23,3.84,2.21,8.14,2.25,12.34.13,11.79.22,23.58,0,35.37-.15,7.41.9,14.74,1,22.12C269.31,298.53,269.37,300.92,267.81,302.94Z" transform="translate(-12.87 -86.4)" style="fill:#efaa00"/><path d="M212,274.37c-.12,7.31.61,14.68-1.66,21.83-5.11-2-10.28-3.89-15-6.72-3-2.16-3.17-4.65-.87-7.44.69-.36,1.36-.76,2.07-1.06,2.28-1,4.27-2.21,3.58-5.14s-2.94-2.78-5.2-2.64c-1.54-1.87-1.28-4.14-1.28-6.3,0-16.45-.31-32.91,1-49.33.13-1.71.08-3.48,1.47-4.81l17.1,7.1q-.55,23.47-1.1,46.94C206.87,270.1,206.86,270.71,212,274.37Z" transform="translate(-12.87 -86.4)" style="fill:#e1ce7f"/><path d="M300,289.23l-16.24,6.83c-3.57-6.6-2.25-13.64-1.86-20.59a2.19,2.19,0,0,1,.38-.83c3.84-4.08,3.84-4.08.17-8a3.6,3.6,0,0,1-.61-1.26,24.6,24.6,0,0,1-.42-7c.45-10.69-.72-21.33-.94-32,0-2.32-.29-4.76,1.5-6.71l16.75-7.35c1.68,1.35,1.7,3.31,1.67,5.16-.32,16.28.54,32.54,1,48.81.06,2.43.5,5.08-1.59,7.08-2.33-.16-4.92-.69-5.76,2.41s1.46,4.38,3.86,5.39c.72.3,1.4.67,2.1,1A6.15,6.15,0,0,1,300,289.23Z" transform="translate(-12.87 -86.4)" style="fill:#e1ce7f"/><path d="M283,274.49a155.43,155.43,0,0,0,.78,21.56,120.73,120.73,0,0,1-16,6.88q-.53-26.79-1.08-53.57c-.17-7.67-.45-15.35-.68-23L282,219.6l1,47C281.65,269.25,280.91,271.88,283,274.49Z" transform="translate(-12.87 -86.4)" style="fill:#7ec9a9"/><path d="M227.83,303.58l1.27-76.39c4.38.73,8.08,3.24,12.18,4.69,1.61.57,2,1.72,1.95,3.29q-.12,37.14-.18,74.28c0,.11-.15.23-.56.83Z" transform="translate(-12.87 -86.4)" style="fill:#efaa00"/><path d="M196,212.75q-.57,30.22-1.14,60.45l-14.1,6.42c-1.2-1.27-.78-2.57-.78-3.71,0-21.94.05-43.87-.1-65.81,0-3.78.59-4.78,4.22-2.83C188,209.34,192,210.95,196,212.75Z" transform="translate(-12.87 -86.4)" style="fill:#1593dc"/><path d="M299.77,273.31q-.52-30.53-1-61.05c4.17-1.84,8.38-3.58,12.48-5.55,2.47-1.19,2.87-.32,2.86,2-.05,23.43,0,46.85,0,70.84A81.64,81.64,0,0,1,299.77,273.31Z" transform="translate(-12.87 -86.4)" style="fill:#1593dc"/><path d="M280,211.74c-5.46,2.48-10.82,5.22-16.61,6.91-4.62.08-8.27-2.72-12.21-4.43-14.18-6.15-28.27-12.52-42.42-18.76-1.68-.74-3.59-1.3-4.18-3.42a93.94,93.94,0,0,1,15.14-6.54A74.89,74.89,0,0,1,244.6,196.3a4.86,4.86,0,0,1,.15,1.8c-.1,1.4-.16,2.85,1.38,3.55s2.57-.37,3.53-1.37a3.89,3.89,0,0,1,5.51-.67c7.55,3,15,6.32,22.46,9.57C278.73,209.66,280,210.11,280,211.74Z" transform="translate(-12.87 -86.4)" style="fill:#e1ce7f"/><path d="M204.52,192.05q27.33,12.26,54.65,24.52c1.41.64,2.78,1.39,4.17,2.08-4.56,2.74-9.53,4.55-14.48,6.4-7.13-1.44-13.38-5.15-20-7.93-12.08-5.09-24.14-10.23-36.13-15.53-1.39-.61-3.57-.57-3.43-3A85.15,85.15,0,0,1,204.52,192.05Z" transform="translate(-12.87 -86.4)" style="fill:#1593dc"/><path d="M244.36,196.81c-7.84-4.64-16.72-7-24.71-11.29a94.39,94.39,0,0,1,15.51-6.61c3,.37,6,.92,7.89,3.75.84,6.15,3,7.15,7.67,3.57,1.81-.92,3.38.11,4.91.76,11.93,5.13,23.75,10.5,35.63,15.74,1.28.56,2.63,1.14,2.83,2.82L280,211.74c-9.54-4.39-19-8.9-29-12.16A12,12,0,0,0,244.36,196.81Z" transform="translate(-12.87 -86.4)" style="fill:#7ec9a9"/><path d="M294.09,205.54l-43.37-19.33c0-3.45,0-6.89,0-11.15l57.06,24.51A82,82,0,0,1,294.09,205.54Z" transform="translate(-12.87 -86.4)" style="fill:#efaa00"/><path d="M189.32,198.58c6.68,4.15,14.23,6.35,21.33,9.57,12.68,5.76,25.47,11.29,38.21,16.91-1.45,1.41-2.87.58-4.32,0q-27.61-11.9-55.2-23.84c-.78-.34-2.58-.07-2.07-1.78C187.4,199,188.61,198.84,189.32,198.58Z" transform="translate(-12.87 -86.4)" style="fill:#068de0"/><path d="M243.06,182.64c-2.63-1.24-5.54-1.89-7.89-3.75,2.21-1.71,4.84-2.46,7.89-3.56Z" transform="translate(-12.87 -86.4)" style="fill:#e7a806"/><path d="M300,289.23q0-3.55,0-7.1l7.66,3.31C305.16,287.67,302.48,288.27,300,289.23Z" transform="translate(-12.87 -86.4)" style="fill:#1a8fd3"/><path d="M194.43,282c.16,2.49-.79,5.11.87,7.43l-8.69-3.15C189.06,283.84,191.78,283,194.43,282Z" transform="translate(-12.87 -86.4)" style="fill:#1991d6"/><path d="M212,274.37c-2.8.17-5.27-.6-5.24-3.8s2.41-4,5.27-3.76C214.68,269.33,215,271.85,212,274.37Z" transform="translate(-12.87 -86.4)" style="fill:#2d3662"/><path d="M283,274.49c-4.28-3-4.29-4.58,0-7.88,2.47.19,4.34,1.35,4.36,3.94S285.47,274.32,283,274.49Z" transform="translate(-12.87 -86.4)" style="fill:#2c3662"/><path d="M244.36,196.81c3.29-1.68,5.49-.78,6.56,2.78-.56,2.84-2.2,4.72-5.12,3.61C242.62,202,242.65,199.44,244.36,196.81Z" transform="translate(-12.87 -86.4)" style="fill:#293362"/></svg>