<svg id="Layer_1" data-name="Layer 1" xmlns="http://www.w3.org/2000/svg" xmlns:xlink="http://www.w3.org/1999/xlink" viewBox="0 0 466.28 220.71"><defs><style>.cls-1{stroke:#000;stroke-miterlimit:10;fill:url(#linear-gradient);}</style><linearGradient id="linear-gradient" x1="117.36" y1="307.54" x2="582.64" y2="307.54" gradientUnits="userSpaceOnUse"><stop offset="0" stop-color="#858585"/><stop offset="1" stop-color="#0e0e0e"/></linearGradient></defs><path class="cls-1" d="M568.6,227.6c-12.93-8.94-35.85-15.25-70.05-19.27C436,201,399.72,197.69,350,197.69S264,201,201.45,208.33c-34.21,4-57.13,10.33-70,19.27s-14.29,19.55-14,27.77l.07,2.06c.6,17.41,1.28,37.15,3.71,48.71.52,2.46.89,4.52,1.19,6.17,1.09,6.05,1.54,8.57,5.85,11.41a64.91,64.91,0,0,0,.55,8.84l.06.4c.37,2.62,3.26,4.54,8.36,5.57a50.66,50.66,0,0,0,8.79.92,14.2,14.2,0,0,0,6.36-1.14c1-.53,1.78-.9,2.38-1.17,10.65,26.86,21.63,49.72,55,61.76,32.44,11.73,61.3,18.12,83.46,18.49h1.47c19.07,0,28-6.37,34.84-12.38,7.05-6.16,13.2-8.79,20.56-8.79s13.51,2.63,20.55,8.79c6.86,6,15.77,12.38,34.85,12.38h1.47c22.15-.37,51-6.77,83.46-18.49,33.33-12,44.31-34.9,55-61.76.6.27,1.39.64,2.38,1.17a14.18,14.18,0,0,0,6.35,1.14,49.66,49.66,0,0,0,8.8-.92c5.09-1,8-2.94,8.36-5.57l.06-.4a64.91,64.91,0,0,0,.55-8.84c4.3-2.84,4.76-5.36,5.85-11.41.3-1.65.67-3.71,1.19-6.17,2.43-11.56,3.11-31.3,3.71-48.71l.07-2.06c.29-8.22-1.05-18.81-14-27.77ZM150.26,334.47c-1.67.9-7.15.8-12.23-.22-3.4-.68-4.69-1.65-4.92-2l-.05-.35c-.18-1.15-.36-2.33-.54-9.47l0-1.21-1-.61a8.29,8.29,0,0,1-3.08-2.59c.53-1.74,2.24-6.2,6.31-7.82,5.61-2.25,8.18-2.07,10.63-.67l.12.51-.24.09a6.3,6.3,0,0,0,.56,1.26,111.6,111.6,0,0,0,4.45,14.27l2.05,5.22.86,2.19c-.74.32-1.68.76-2.85,1.39Zm25,34c-8.07-11.23-13.38-24.79-19-39.15-.67-1.73-1.36-3.47-2.05-5.23-10.85-27.5-9.91-69.38-9.57-78.19l3.62-.75c.37,12.61,3.37,67.56,27.26,107.72,12.21,20.55,22.62,32.7,30.06,39.77a70.42,70.42,0,0,1-30.33-24.17ZM406.79,413c-18.53.3-26.66-5.41-33.38-11.29-7.8-6.83-15-9.87-23.42-9.87s-15.62,3-23.43,9.87c-6.72,5.88-14.83,11.59-33.37,11.29-24.13-.41-52.1-8-73.67-15.29-1.23-.59-17.51-8.89-40.23-47.12a145,145,0,0,1-9.36-18.9c10.21,1.16,59.6,6.65,89.13,7.72,8.21.29,15.6.44,22.12.44q10.29,0,17.61-.49c13.89-.95,17-3,18.19-4.94l1.85-2.94h62.31l1.85,2.94c1.2,1.91,4.3,4,18.19,4.94q7.31.48,17.61.49,9.78,0,22.12-.44c29.53-1.07,78.92-6.56,89.13-7.72a145,145,0,0,1-9.36,18.9c-22.77,38.3-39.07,46.56-40.23,47.12-35.73,12.12-59.61,15.05-73.66,15.29Zm87.57-20.42c7.45-7.06,17.86-19.22,30.07-39.76,23.88-40.16,26.88-95.12,27.26-107.72l3.62.75c.27,7.25,1,36.92-4.86,62.54l0,.1a109.45,109.45,0,0,1-4.69,15.55q-1.05,2.64-2,5.23c-5.62,14.36-10.92,27.92-19,39.15a70.41,70.41,0,0,1-30.34,24.16Zm74.17-72-1,.61,0,1.21c-.19,7.14-.37,8.32-.54,9.47l0,.35c-.23.34-1.52,1.31-4.92,2-5.08,1-10.57,1.12-12.23.22-1.17-.63-2.12-1.07-2.85-1.39l.86-2.19,2-5.22a111.6,111.6,0,0,0,4.45-14.27,6.3,6.3,0,0,0,.56-1.26l-.24-.09c0-.16.08-.34.12-.51,2.45-1.4,5-1.58,10.63.67,4,1.61,5.77,6.08,6.31,7.83a8.41,8.41,0,0,1-3.09,2.58Zm9.72-65.4-.07,2.06c-.59,17.24-1.26,36.77-3.62,48-.53,2.52-.91,4.61-1.21,6.3a0,0,0,0,1,0,0,14,14,0,0,0-6.42-5.41c-4.67-1.87-8.09-2.44-11.17-1.7,5.55-28.34,3.92-58.88,3.83-60.49l-.09-1.65-1.62-.35c-.53-.12-53.58-11.58-100.17-15s-107-4.66-107.66-4.67L350,224.5l0-2.18c-.6,0-61.16,1.28-107.66,4.67s-99.64,14.86-100.17,15l-1.62.36-.09,1.65c-.09,1.61-1.72,32.15,3.83,60.49-3.08-.74-6.5-.17-11.17,1.7a14,14,0,0,0-6.42,5.41s0,0,0,0c-.3-1.68-.68-3.77-1.21-6.29-2.36-11.19-3-30.73-3.62-48l-.07-2.07c-.26-7.55,1-16.32,12.13-24,12.33-8.53,34.6-14.59,68.08-18.53C264.31,205.32,300.49,202,350,202s85.69,3.28,148.05,10.61c33.48,3.94,55.75,10,68.08,18.53,11.15,7.72,12.39,16.48,12.13,24Z" transform="translate(-116.86 -197.19)"/></svg>