<svg id="noun-mac-3642953" xmlns="http://www.w3.org/2000/svg" width="24.627" height="20.813" viewBox="0 0 24.627 20.813">
  <path id="Path_8300" data-name="Path 8300" d="M152.824,93.332H130.03a.917.917,0,0,0-.917.917v15.783a.917.917,0,0,0,.917.917h8.7l-.117,1.75a1.228,1.228,0,0,1-.806,1.164l-.2.07v.211h7.63v-.211l-.2-.07a1.228,1.228,0,0,1-.806-1.164l-.117-1.75h8.7a.917.917,0,0,0,.917-.917V94.249a.917.917,0,0,0-.917-.917Zm-11.4,15.932a.642.642,0,1,1,.642-.642A.642.642,0,0,1,141.427,109.264Zm11.166-2.439H130.261V94.262h22.333Z" transform="translate(-129.113 -93.332)" fill="#152369"/>
</svg>
