<?xml version="1.0" encoding="utf-8"?>
<!-- Generator: Adobe Illustrator 25.3.0, SVG Export Plug-In . SVG Version: 6.00 Build 0)  -->
<svg version="1.1" id="Layer_1" xmlns="http://www.w3.org/2000/svg" xmlns:xlink="http://www.w3.org/1999/xlink" x="0px" y="0px"
	 viewBox="0 0 1892 591" style="enable-background:new 0 0 1892 591;" xml:space="preserve">
<style type="text/css">
	.st0{fill:#FFF7F1;}
	.st1{fill:#FFFFFF;}
	.st2{fill:#FFB6CB;}
	.st3{fill:#E5EAF6;}
	.st4{fill:#6AD5E1;}
	.st5{fill:#FF92AF;}
	.st6{fill:#F3F5FB;}
	.st7{fill:none;stroke:#FF7F9A;stroke-width:0.4;stroke-miterlimit:10;}
</style>
<path class="st0" d="M1653.1,457c13.6,0,24.6-11,24.6-24.6c0-13.6-11-24.6-24.6-24.6s-24.6,11-24.6,24.6
	C1628.5,446,1639.5,457,1653.1,457z"/>
<path class="st1" d="M1691.2,402.1l-17.7-14.6c-1.9-1.6-4.3-2.4-6.8-2.4h-112.9c-4.7,0-9.2-1.9-12.5-5.2c-3.3-3.3-5.2-7.8-5.2-12.5
	v-63.8c0-4.7,1.9-9.2,5.2-12.5c3.3-3.3,7.8-5.2,12.5-5.2h123.5c4.7,0,9.2,1.9,12.5,5.2c3.3,3.3,5.2,7.8,5.2,12.5v96.5
	c0,0.4-0.1,0.9-0.3,1.3c-0.2,0.4-0.6,0.7-1,0.9c-0.4,0.2-0.8,0.3-1.3,0.2C1691.9,402.6,1691.5,402.4,1691.2,402.1L1691.2,402.1z"/>
<path class="st2" d="M1612.4,307.1h-55.4c-1.9,0-3.5,1.6-3.5,3.5v0c0,1.9,1.6,3.5,3.5,3.5h55.4c1.9,0,3.5-1.6,3.5-3.5v0
	C1615.9,308.6,1614.4,307.1,1612.4,307.1z"/>
<path class="st2" d="M1646.4,307.1h-22c-1.9,0-3.5,1.6-3.5,3.5v0c0,1.9,1.6,3.5,3.5,3.5h22c1.9,0,3.5-1.6,3.5-3.5v0
	C1649.9,308.6,1648.3,307.1,1646.4,307.1z"/>
<path class="st2" d="M1671.9,307.1h-13.8c-1.9,0-3.5,1.6-3.5,3.5v0c0,1.9,1.6,3.5,3.5,3.5h13.8c1.9,0,3.5-1.6,3.5-3.5v0
	C1675.4,308.6,1673.8,307.1,1671.9,307.1z"/>
<path class="st3" d="M1629.1,323.4h-72c-1.9,0-3.5,1.6-3.5,3.5v0c0,1.9,1.6,3.5,3.5,3.5h72c1.9,0,3.5-1.6,3.5-3.5v0
	C1632.6,325,1631.1,323.4,1629.1,323.4z"/>
<path class="st3" d="M1671.9,323.4h-29.6c-1.9,0-3.5,1.6-3.5,3.5v0c0,1.9,1.6,3.5,3.5,3.5h29.6c1.9,0,3.5-1.6,3.5-3.5v0
	C1675.4,325,1673.8,323.4,1671.9,323.4z"/>
<path class="st4" d="M1612.2,346.8h59.6c1.9,0,3.5-1.6,3.5-3.5v0c0-1.9-1.6-3.5-3.5-3.5h-59.6c-1.9,0-3.5,1.6-3.5,3.5v0
	C1608.7,345.3,1610.3,346.8,1612.2,346.8z"/>
<path class="st4" d="M1580.2,346.8h20c1.9,0,3.5-1.6,3.5-3.5v0c0-1.9-1.6-3.5-3.5-3.5h-20c-1.9,0-3.5,1.6-3.5,3.5v0
	C1576.7,345.3,1578.3,346.8,1580.2,346.8z"/>
<path class="st4" d="M1557.1,346.8h11.4c1.9,0,3.5-1.6,3.5-3.5v0c0-1.9-1.6-3.5-3.5-3.5h-11.4c-1.9,0-3.5,1.6-3.5,3.5v0
	C1553.6,345.3,1555.1,346.8,1557.1,346.8z"/>
<path class="st3" d="M1603.4,356.2h-46.4c-1.9,0-3.5,1.6-3.5,3.5v0c0,1.9,1.6,3.5,3.5,3.5h46.4c1.9,0,3.5-1.6,3.5-3.5v0
	C1607,357.8,1605.4,356.2,1603.4,356.2z"/>
<path class="st3" d="M1641.7,356.2h-26.3c-1.9,0-3.5,1.6-3.5,3.5v0c0,1.9,1.6,3.5,3.5,3.5h26.3c1.9,0,3.5-1.6,3.5-3.5v0
	C1645.2,357.8,1643.7,356.2,1641.7,356.2z"/>
<path class="st3" d="M1671.9,356.2h-18.4c-1.9,0-3.5,1.6-3.5,3.5v0c0,1.9,1.6,3.5,3.5,3.5h18.4c1.9,0,3.5-1.6,3.5-3.5v0
	C1675.4,357.8,1673.8,356.2,1671.9,356.2z"/>
<path class="st5" d="M1648.2,426.8c0.2,0,0.4,0.1,0.5,0.2c0.1,0.1,0.2,0.3,0.2,0.5c0,0.2-0.1,0.4-0.2,0.5c-0.1,0.1-0.3,0.2-0.5,0.2
	c-0.2,0-0.4-0.1-0.5-0.2c-0.1-0.1-0.2-0.3-0.2-0.5c0-0.2,0.1-0.4,0.2-0.5C1647.8,426.9,1648,426.8,1648.2,426.8L1648.2,426.8z
	 M1648.2,425.4c-0.4,0-0.8,0.1-1.2,0.4c-0.4,0.2-0.6,0.6-0.8,0.9c-0.2,0.4-0.2,0.8-0.1,1.2c0.1,0.4,0.3,0.8,0.6,1.1
	c0.3,0.3,0.7,0.5,1.1,0.6c0.4,0.1,0.8,0,1.2-0.1s0.7-0.4,0.9-0.8c0.2-0.3,0.4-0.8,0.4-1.2c0-0.6-0.2-1.1-0.6-1.5
	C1649.3,425.6,1648.8,425.4,1648.2,425.4L1648.2,425.4z"/>
<path class="st1" d="M282.1,347H171.9c-8.8,0-15.9,7.1-15.9,15.9v111.3c0,8.8,7.1,15.9,15.9,15.9h110.2c8.8,0,15.9-7.1,15.9-15.9
	V362.9C298,354.1,290.9,347,282.1,347z"/>
<path class="st6" d="M257.7,458.7h-61.5c-1.7,0-3.2,1.4-3.2,3.1v0c0,1.7,1.4,3.1,3.2,3.1h61.5c1.7,0,3.2-1.4,3.2-3.1v0
	C260.9,460.1,259.5,458.7,257.7,458.7z"/>
<path class="st3" d="M248.1,427.2h-42.1c-1.8,0-3.2,1.4-3.2,3.2v2.6c0,1.7,1.4,3.2,3.2,3.2h42.1c1.8,0,3.2-1.4,3.2-3.2v-2.6
	C251.2,428.6,249.8,427.2,248.1,427.2z"/>
<path class="st6" d="M264.1,446.1h-74.2c-1.7,0-3.2,1.4-3.2,3.1v0c0,1.7,1.4,3.1,3.2,3.1h74.2c1.7,0,3.2-1.4,3.2-3.1v0
	C267.3,447.5,265.9,446.1,264.1,446.1z"/>
<path class="st7" d="M228,371.3c0,0.2,3.8,13.5,3.9,14.1"/>
<path class="st7" d="M216.5,386c0.3,0.1,1.7,0.5,1.9,0.6"/>
</svg>
